<svg width="1000" height="710" viewBox="0 0 1000 710" fill="none" xmlns="http://www.w3.org/2000/svg" xmlns:xlink="http://www.w3.org/1999/xlink" role="img" aria-labelledby="title desc">
  <title id="title">nariokeith Monaco contribution circuit</title>
  <desc id="desc">A polished 3D Monaco circuit with Hard, Medium, and Soft tyre compounds showing 93 real GitHub contributions.</desc>
  <style>
    .title { font: 800 28px Arial, sans-serif; letter-spacing: 3px; fill: #f0f6fc; }
    .subtitle { font: 600 12px Arial, sans-serif; letter-spacing: 2px; fill: #8b949e; }
    .label { font: 700 14px Arial, sans-serif; fill: #f0f6fc; }
    .muted { font: 600 11px Arial, sans-serif; fill: #8b949e; }
    .month { font: 600 10px Arial, sans-serif; fill: #8b949e; }
    .track-label { font: 700 10px Arial, sans-serif; letter-spacing: 1px; fill: #aeb7c2; }
    .panel-kicker { font: 800 13px Arial, sans-serif; letter-spacing: 2px; fill: #f0f6fc; }
    .panel-note { font: 700 10px Arial, sans-serif; letter-spacing: 2px; fill: #8b949e; }
    .compound-name { font: 900 13px Arial, sans-serif; letter-spacing: 2px; fill: #f0f6fc; }
    .compound-metric { font: 900 23px Arial, sans-serif; fill: #f0f6fc; }
    .compound-label { font: 800 9px Arial, sans-serif; letter-spacing: 1.5px; fill: #8b949e; }
    .compound-sub { font: 800 10px Arial, sans-serif; letter-spacing: 1.5px; fill: #f0f6fc; }
  </style>
  <defs>
    <linearGradient id="sea" x1="660" y1="300" x2="970" y2="600" gradientUnits="userSpaceOnUse">
      <stop stop-color="#092536"/>
      <stop offset="1" stop-color="#05131d"/>
    </linearGradient>
    <radialGradient id="glow" cx="0" cy="0" r="1" gradientUnits="userSpaceOnUse" gradientTransform="translate(520 280) rotate(90) scale(260 420)">
      <stop stop-color="#e10600" stop-opacity="0.28"/>
      <stop offset="1" stop-color="#e10600" stop-opacity="0"/>
    </radialGradient>
    <filter id="shadow" x="-20%" y="-20%" width="140%" height="140%">
      <feDropShadow dx="0" dy="18" stdDeviation="14" flood-color="#000000" flood-opacity="0.55"/>
    </filter>
  </defs>

  <rect width="1000" height="710" rx="18" fill="#0d1117"/>
  <rect x="1" y="1" width="998" height="708" rx="17" stroke="#30363d"/>
  <path d="M632 354C710 306 786 298 872 336C956 374 984 466 950 596H624C584 494 574 398 632 354Z" fill="url(#sea)" opacity="0.66"/>
  <rect width="1000" height="710" rx="18" fill="url(#glow)"/>

  <text x="50%" y="42" text-anchor="middle" class="title">MONTE CARLO</text>
  <text x="50%" y="64" text-anchor="middle" class="subtitle">MONACO CONTRIBUTION CIRCUIT</text>

  <g transform="matrix(0.72,0,-0.08,0.56,258,82)">
    <path d="M54 86L184 42L318 74L438 42L572 76L714 44L858 78" stroke="#3d4652" stroke-width="2" fill="none" opacity="0.58"/>
<path d="M72 164L210 122L360 156L492 118L630 146L812 116" stroke="#3d4652" stroke-width="2" fill="none" opacity="0.58"/>
<path d="M54 244L220 206L352 226L514 198L672 230L858 194" stroke="#3d4652" stroke-width="2" fill="none" opacity="0.58"/>
<path d="M98 336L254 292L410 320L566 278L718 318L876 288" stroke="#3d4652" stroke-width="2" fill="none" opacity="0.58"/>
<path d="M114 420L284 386L450 408L620 366L806 408" stroke="#3d4652" stroke-width="2" fill="none" opacity="0.58"/>
<path d="M164 52L126 150L172 236L132 332L204 466" stroke="#3d4652" stroke-width="2" fill="none" opacity="0.58"/>
<path d="M296 58L274 138L318 210L286 306L340 438" stroke="#3d4652" stroke-width="2" fill="none" opacity="0.58"/>
<path d="M440 50L402 148L470 242L424 344L488 452" stroke="#3d4652" stroke-width="2" fill="none" opacity="0.58"/>
<path d="M596 64L548 160L624 250L570 354L648 474" stroke="#3d4652" stroke-width="2" fill="none" opacity="0.58"/>
<path d="M754 54L694 166L784 252L734 356L824 452" stroke="#3d4652" stroke-width="2" fill="none" opacity="0.58"/>

    <path d="M 104.50658,653.97079 C 104.50658,653.97079 84.965034,629.56873 79.834481,596.08515 C 79.834481,596.08515 74.973956,554.23062 75.243997,532.3584 C 75.243997,532.3584 77.404225,475.92227 85.50508,450.80965 C 85.50508,450.80965 93.335916,414.35577 109.26763,387.89296 L 130.86994,353.05921 C 130.86994,353.05921 134.82662,338.97228 148.55254,344.16813 C 148.55254,344.16813 164.35349,348.1987 189.46616,348.1987 L 339.60219,344.95836 C 339.60219,344.95836 350.40331,344.41832 369.57538,337.39752 C 369.57538,337.39752 382.80679,333.6172 398.73845,333.6172 L 464.89557,330.64679 C 464.89557,330.64679 470.02615,332.80707 485.68779,322.27592 L 501.88952,308.50449 C 501.88952,308.50449 510.80047,296.08313 508.91022,291.22263 C 508.91022,291.22263 509.45033,284.20187 507.29006,278.53133 L 486.7679,237.48687 C 486.7679,237.48687 482.17744,228.90319 483.44088,219.42358 C 483.44088,219.42358 483.46952,211.9309 486.48858,209.16245 L 578.03766,122.45467 C 578.03766,122.45467 589.37879,111.92347 595.31947,111.92347 C 595.31947,111.92347 605.04054,109.49323 604.23043,121.10449 C 604.23043,121.10449 603.96043,158.09841 606.9307,172.13996 L 610.98113,190.77187 C 610.98113,190.77187 612.06126,202.38316 621.24229,200.76303 C 621.24229,200.76303 629.07308,200.49299 629.34315,190.77187 L 628.533,162.68893 C 628.533,162.68893 625.56265,148.37737 642.57452,147.83732 L 670.11743,146.75721 C 670.11743,146.75721 681.72868,145.13703 679.2984,160.52866 L 671.4676,194.01228 C 671.4676,194.01228 651.48542,262.59958 609.3609,309.5846 C 609.3609,309.5846 552.9249,355.21942 502.4296,366.29061 C 502.4296,366.29061 485.68779,372.23126 445.4535,373.58144 L 349.85202,375.86671 C 349.85202,375.86671 345.85264,380.74992 346.08288,385.46271 L 345.12781,394.57255 C 345.12781,394.57255 336.70589,395.4736 333.41139,395.55892 L 310.68925,395.55892 L 300.98805,390.32318 C 300.98805,390.32318 291.8071,382.2223 281.81601,384.38256 L 221.59959,384.65261 L 180.2852,386.27274 C 180.2852,386.27274 161.65323,385.46271 154.63245,402.47446 C 154.63245,402.47446 143.70623,423.70454 134.42303,477.53919 L 140.46862,483.78999 C 140.46862,483.78999 143.75175,485.72297 144.35154,493.48856 L 145.51777,552.0814 C 145.51777,552.0814 145.45152,560.71138 133.03009,576.91313 C 133.03009,576.91313 124.37277,587.95117 130.04328,610.09356 C 130.04328,610.09356 138.7007,636.31942 162.46329,654.41137 C 162.46329,654.41137 180.01513,670.61309 191.6264,674.93354 C 191.6264,674.93354 205.93792,680.33415 204.04778,693.83555 C 204.04778,693.83555 204.04778,703.82663 190.27624,703.28655 L 116.34799,695.18571 C 116.34799,695.18571 102.80682,695.4359 106.85727,682.20447 C 106.85727,682.20447 115.06333,666.1136 104.50658,653.97079 z" transform="translate(18 30)" stroke="#1d0304" stroke-width="42" stroke-linecap="round" stroke-linejoin="round" opacity="0.95"/>
    <path d="M 104.50658,653.97079 C 104.50658,653.97079 84.965034,629.56873 79.834481,596.08515 C 79.834481,596.08515 74.973956,554.23062 75.243997,532.3584 C 75.243997,532.3584 77.404225,475.92227 85.50508,450.80965 C 85.50508,450.80965 93.335916,414.35577 109.26763,387.89296 L 130.86994,353.05921 C 130.86994,353.05921 134.82662,338.97228 148.55254,344.16813 C 148.55254,344.16813 164.35349,348.1987 189.46616,348.1987 L 339.60219,344.95836 C 339.60219,344.95836 350.40331,344.41832 369.57538,337.39752 C 369.57538,337.39752 382.80679,333.6172 398.73845,333.6172 L 464.89557,330.64679 C 464.89557,330.64679 470.02615,332.80707 485.68779,322.27592 L 501.88952,308.50449 C 501.88952,308.50449 510.80047,296.08313 508.91022,291.22263 C 508.91022,291.22263 509.45033,284.20187 507.29006,278.53133 L 486.7679,237.48687 C 486.7679,237.48687 482.17744,228.90319 483.44088,219.42358 C 483.44088,219.42358 483.46952,211.9309 486.48858,209.16245 L 578.03766,122.45467 C 578.03766,122.45467 589.37879,111.92347 595.31947,111.92347 C 595.31947,111.92347 605.04054,109.49323 604.23043,121.10449 C 604.23043,121.10449 603.96043,158.09841 606.9307,172.13996 L 610.98113,190.77187 C 610.98113,190.77187 612.06126,202.38316 621.24229,200.76303 C 621.24229,200.76303 629.07308,200.49299 629.34315,190.77187 L 628.533,162.68893 C 628.533,162.68893 625.56265,148.37737 642.57452,147.83732 L 670.11743,146.75721 C 670.11743,146.75721 681.72868,145.13703 679.2984,160.52866 L 671.4676,194.01228 C 671.4676,194.01228 651.48542,262.59958 609.3609,309.5846 C 609.3609,309.5846 552.9249,355.21942 502.4296,366.29061 C 502.4296,366.29061 485.68779,372.23126 445.4535,373.58144 L 349.85202,375.86671 C 349.85202,375.86671 345.85264,380.74992 346.08288,385.46271 L 345.12781,394.57255 C 345.12781,394.57255 336.70589,395.4736 333.41139,395.55892 L 310.68925,395.55892 L 300.98805,390.32318 C 300.98805,390.32318 291.8071,382.2223 281.81601,384.38256 L 221.59959,384.65261 L 180.2852,386.27274 C 180.2852,386.27274 161.65323,385.46271 154.63245,402.47446 C 154.63245,402.47446 143.70623,423.70454 134.42303,477.53919 L 140.46862,483.78999 C 140.46862,483.78999 143.75175,485.72297 144.35154,493.48856 L 145.51777,552.0814 C 145.51777,552.0814 145.45152,560.71138 133.03009,576.91313 C 133.03009,576.91313 124.37277,587.95117 130.04328,610.09356 C 130.04328,610.09356 138.7007,636.31942 162.46329,654.41137 C 162.46329,654.41137 180.01513,670.61309 191.6264,674.93354 C 191.6264,674.93354 205.93792,680.33415 204.04778,693.83555 C 204.04778,693.83555 204.04778,703.82663 190.27624,703.28655 L 116.34799,695.18571 C 116.34799,695.18571 102.80682,695.4359 106.85727,682.20447 C 106.85727,682.20447 115.06333,666.1136 104.50658,653.97079 z" transform="translate(10 18)" stroke="#5a0709" stroke-width="39" stroke-linecap="round" stroke-linejoin="round" opacity="0.98"/>
    <path d="M 104.50658,653.97079 C 104.50658,653.97079 84.965034,629.56873 79.834481,596.08515 C 79.834481,596.08515 74.973956,554.23062 75.243997,532.3584 C 75.243997,532.3584 77.404225,475.92227 85.50508,450.80965 C 85.50508,450.80965 93.335916,414.35577 109.26763,387.89296 L 130.86994,353.05921 C 130.86994,353.05921 134.82662,338.97228 148.55254,344.16813 C 148.55254,344.16813 164.35349,348.1987 189.46616,348.1987 L 339.60219,344.95836 C 339.60219,344.95836 350.40331,344.41832 369.57538,337.39752 C 369.57538,337.39752 382.80679,333.6172 398.73845,333.6172 L 464.89557,330.64679 C 464.89557,330.64679 470.02615,332.80707 485.68779,322.27592 L 501.88952,308.50449 C 501.88952,308.50449 510.80047,296.08313 508.91022,291.22263 C 508.91022,291.22263 509.45033,284.20187 507.29006,278.53133 L 486.7679,237.48687 C 486.7679,237.48687 482.17744,228.90319 483.44088,219.42358 C 483.44088,219.42358 483.46952,211.9309 486.48858,209.16245 L 578.03766,122.45467 C 578.03766,122.45467 589.37879,111.92347 595.31947,111.92347 C 595.31947,111.92347 605.04054,109.49323 604.23043,121.10449 C 604.23043,121.10449 603.96043,158.09841 606.9307,172.13996 L 610.98113,190.77187 C 610.98113,190.77187 612.06126,202.38316 621.24229,200.76303 C 621.24229,200.76303 629.07308,200.49299 629.34315,190.77187 L 628.533,162.68893 C 628.533,162.68893 625.56265,148.37737 642.57452,147.83732 L 670.11743,146.75721 C 670.11743,146.75721 681.72868,145.13703 679.2984,160.52866 L 671.4676,194.01228 C 671.4676,194.01228 651.48542,262.59958 609.3609,309.5846 C 609.3609,309.5846 552.9249,355.21942 502.4296,366.29061 C 502.4296,366.29061 485.68779,372.23126 445.4535,373.58144 L 349.85202,375.86671 C 349.85202,375.86671 345.85264,380.74992 346.08288,385.46271 L 345.12781,394.57255 C 345.12781,394.57255 336.70589,395.4736 333.41139,395.55892 L 310.68925,395.55892 L 300.98805,390.32318 C 300.98805,390.32318 291.8071,382.2223 281.81601,384.38256 L 221.59959,384.65261 L 180.2852,386.27274 C 180.2852,386.27274 161.65323,385.46271 154.63245,402.47446 C 154.63245,402.47446 143.70623,423.70454 134.42303,477.53919 L 140.46862,483.78999 C 140.46862,483.78999 143.75175,485.72297 144.35154,493.48856 L 145.51777,552.0814 C 145.51777,552.0814 145.45152,560.71138 133.03009,576.91313 C 133.03009,576.91313 124.37277,587.95117 130.04328,610.09356 C 130.04328,610.09356 138.7007,636.31942 162.46329,654.41137 C 162.46329,654.41137 180.01513,670.61309 191.6264,674.93354 C 191.6264,674.93354 205.93792,680.33415 204.04778,693.83555 C 204.04778,693.83555 204.04778,703.82663 190.27624,703.28655 L 116.34799,695.18571 C 116.34799,695.18571 102.80682,695.4359 106.85727,682.20447 C 106.85727,682.20447 115.06333,666.1136 104.50658,653.97079 z" stroke="#f7f7f7" stroke-width="38" stroke-linecap="round" stroke-linejoin="round" filter="url(#shadow)"/>
    <path d="M 104.50658,653.97079 C 104.50658,653.97079 84.965034,629.56873 79.834481,596.08515 C 79.834481,596.08515 74.973956,554.23062 75.243997,532.3584 C 75.243997,532.3584 77.404225,475.92227 85.50508,450.80965 C 85.50508,450.80965 93.335916,414.35577 109.26763,387.89296 L 130.86994,353.05921 C 130.86994,353.05921 134.82662,338.97228 148.55254,344.16813 C 148.55254,344.16813 164.35349,348.1987 189.46616,348.1987 L 339.60219,344.95836 C 339.60219,344.95836 350.40331,344.41832 369.57538,337.39752 C 369.57538,337.39752 382.80679,333.6172 398.73845,333.6172 L 464.89557,330.64679 C 464.89557,330.64679 470.02615,332.80707 485.68779,322.27592 L 501.88952,308.50449 C 501.88952,308.50449 510.80047,296.08313 508.91022,291.22263 C 508.91022,291.22263 509.45033,284.20187 507.29006,278.53133 L 486.7679,237.48687 C 486.7679,237.48687 482.17744,228.90319 483.44088,219.42358 C 483.44088,219.42358 483.46952,211.9309 486.48858,209.16245 L 578.03766,122.45467 C 578.03766,122.45467 589.37879,111.92347 595.31947,111.92347 C 595.31947,111.92347 605.04054,109.49323 604.23043,121.10449 C 604.23043,121.10449 603.96043,158.09841 606.9307,172.13996 L 610.98113,190.77187 C 610.98113,190.77187 612.06126,202.38316 621.24229,200.76303 C 621.24229,200.76303 629.07308,200.49299 629.34315,190.77187 L 628.533,162.68893 C 628.533,162.68893 625.56265,148.37737 642.57452,147.83732 L 670.11743,146.75721 C 670.11743,146.75721 681.72868,145.13703 679.2984,160.52866 L 671.4676,194.01228 C 671.4676,194.01228 651.48542,262.59958 609.3609,309.5846 C 609.3609,309.5846 552.9249,355.21942 502.4296,366.29061 C 502.4296,366.29061 485.68779,372.23126 445.4535,373.58144 L 349.85202,375.86671 C 349.85202,375.86671 345.85264,380.74992 346.08288,385.46271 L 345.12781,394.57255 C 345.12781,394.57255 336.70589,395.4736 333.41139,395.55892 L 310.68925,395.55892 L 300.98805,390.32318 C 300.98805,390.32318 291.8071,382.2223 281.81601,384.38256 L 221.59959,384.65261 L 180.2852,386.27274 C 180.2852,386.27274 161.65323,385.46271 154.63245,402.47446 C 154.63245,402.47446 143.70623,423.70454 134.42303,477.53919 L 140.46862,483.78999 C 140.46862,483.78999 143.75175,485.72297 144.35154,493.48856 L 145.51777,552.0814 C 145.51777,552.0814 145.45152,560.71138 133.03009,576.91313 C 133.03009,576.91313 124.37277,587.95117 130.04328,610.09356 C 130.04328,610.09356 138.7007,636.31942 162.46329,654.41137 C 162.46329,654.41137 180.01513,670.61309 191.6264,674.93354 C 191.6264,674.93354 205.93792,680.33415 204.04778,693.83555 C 204.04778,693.83555 204.04778,703.82663 190.27624,703.28655 L 116.34799,695.18571 C 116.34799,695.18571 102.80682,695.4359 106.85727,682.20447 C 106.85727,682.20447 115.06333,666.1136 104.50658,653.97079 z" stroke="#e10600" stroke-width="28" stroke-linecap="round" stroke-linejoin="round"/>
    <path d="M 104.50658,653.97079 C 104.50658,653.97079 84.965034,629.56873 79.834481,596.08515 C 79.834481,596.08515 74.973956,554.23062 75.243997,532.3584 C 75.243997,532.3584 77.404225,475.92227 85.50508,450.80965 C 85.50508,450.80965 93.335916,414.35577 109.26763,387.89296 L 130.86994,353.05921 C 130.86994,353.05921 134.82662,338.97228 148.55254,344.16813 C 148.55254,344.16813 164.35349,348.1987 189.46616,348.1987 L 339.60219,344.95836 C 339.60219,344.95836 350.40331,344.41832 369.57538,337.39752 C 369.57538,337.39752 382.80679,333.6172 398.73845,333.6172 L 464.89557,330.64679 C 464.89557,330.64679 470.02615,332.80707 485.68779,322.27592 L 501.88952,308.50449 C 501.88952,308.50449 510.80047,296.08313 508.91022,291.22263 C 508.91022,291.22263 509.45033,284.20187 507.29006,278.53133 L 486.7679,237.48687 C 486.7679,237.48687 482.17744,228.90319 483.44088,219.42358 C 483.44088,219.42358 483.46952,211.9309 486.48858,209.16245 L 578.03766,122.45467 C 578.03766,122.45467 589.37879,111.92347 595.31947,111.92347 C 595.31947,111.92347 605.04054,109.49323 604.23043,121.10449 C 604.23043,121.10449 603.96043,158.09841 606.9307,172.13996 L 610.98113,190.77187 C 610.98113,190.77187 612.06126,202.38316 621.24229,200.76303 C 621.24229,200.76303 629.07308,200.49299 629.34315,190.77187 L 628.533,162.68893 C 628.533,162.68893 625.56265,148.37737 642.57452,147.83732 L 670.11743,146.75721 C 670.11743,146.75721 681.72868,145.13703 679.2984,160.52866 L 671.4676,194.01228 C 671.4676,194.01228 651.48542,262.59958 609.3609,309.5846 C 609.3609,309.5846 552.9249,355.21942 502.4296,366.29061 C 502.4296,366.29061 485.68779,372.23126 445.4535,373.58144 L 349.85202,375.86671 C 349.85202,375.86671 345.85264,380.74992 346.08288,385.46271 L 345.12781,394.57255 C 345.12781,394.57255 336.70589,395.4736 333.41139,395.55892 L 310.68925,395.55892 L 300.98805,390.32318 C 300.98805,390.32318 291.8071,382.2223 281.81601,384.38256 L 221.59959,384.65261 L 180.2852,386.27274 C 180.2852,386.27274 161.65323,385.46271 154.63245,402.47446 C 154.63245,402.47446 143.70623,423.70454 134.42303,477.53919 L 140.46862,483.78999 C 140.46862,483.78999 143.75175,485.72297 144.35154,493.48856 L 145.51777,552.0814 C 145.51777,552.0814 145.45152,560.71138 133.03009,576.91313 C 133.03009,576.91313 124.37277,587.95117 130.04328,610.09356 C 130.04328,610.09356 138.7007,636.31942 162.46329,654.41137 C 162.46329,654.41137 180.01513,670.61309 191.6264,674.93354 C 191.6264,674.93354 205.93792,680.33415 204.04778,693.83555 C 204.04778,693.83555 204.04778,703.82663 190.27624,703.28655 L 116.34799,695.18571 C 116.34799,695.18571 102.80682,695.4359 106.85727,682.20447 C 106.85727,682.20447 115.06333,666.1136 104.50658,653.97079 z" stroke="#ff6b6b" stroke-width="5" stroke-linecap="round" stroke-linejoin="round" stroke-dasharray="22 18" opacity="0.9"/>

    <g transform="translate(118 680) rotate(6)">
      <rect x="0" y="0" width="9" height="9" fill="#f0f6fc"/>
      <rect x="9" y="9" width="9" height="9" fill="#f0f6fc"/>
      <rect x="9" y="0" width="9" height="9" fill="#0d1117"/>
      <rect x="0" y="9" width="9" height="9" fill="#0d1117"/>
      <path d="M0 0V38" stroke="#f0f6fc" stroke-width="2"/>
    </g>

    <text x="388" y="178" class="track-label">CASINO</text>
    <text x="654" y="344" class="track-label">TUNNEL</text>
    <text x="536" y="238" class="track-label">HAIRPIN</text>
    <text x="198" y="564" class="track-label">PISCINE</text>
    <text x="254" y="706" class="track-label">RASCASSE</text>
    <text x="46" y="714" class="track-label">START</text>
  </g>

  <g>
  <rect x="42" y="500" width="916" height="194" rx="18" fill="#080c12" opacity="0.94"/>
  <rect x="43" y="501" width="914" height="192" rx="17" stroke="#303946"/>
  <path d="M66 538H934" stroke="#202934" stroke-width="2"/>
  <text x="68" y="526" class="panel-kicker">PIT WALL // TYRE STRATEGY</text>
  <text x="932" y="526" text-anchor="end" class="panel-note">REAL GITHUB TELEMETRY</text>
  <g>
  <title>HARD: 93 TOTAL</title>
  <ellipse cx="220" cy="658" rx="78" ry="15" fill="#020407" opacity="0.55"/>
  <rect x="218" y="525" width="4" height="8" rx="2" fill="#d7dde6" opacity="0.63" transform="rotate(-138 220 600)"/>
<rect x="218" y="524" width="4" height="9" rx="2" fill="#d7dde6" opacity="0.66" transform="rotate(-115 220 600)"/>
<rect x="218" y="528" width="4" height="5" rx="2" fill="#d7dde6" opacity="0.18" transform="rotate(-92 220 600)"/>
<rect x="218" y="528" width="4" height="5" rx="2" fill="#d7dde6" opacity="0.18" transform="rotate(-69 220 600)"/>
<rect x="218" y="525" width="4" height="8" rx="2" fill="#d7dde6" opacity="0.65" transform="rotate(-46 220 600)"/>
<rect x="218" y="528" width="4" height="5" rx="2" fill="#d7dde6" opacity="0.18" transform="rotate(-23 220 600)"/>
<rect x="218" y="525" width="4" height="8" rx="2" fill="#d7dde6" opacity="0.65" transform="rotate(0 220 600)"/>
<rect x="218" y="528" width="4" height="5" rx="2" fill="#d7dde6" opacity="0.18" transform="rotate(23 220 600)"/>
<rect x="218" y="528" width="4" height="5" rx="2" fill="#d7dde6" opacity="0.18" transform="rotate(46 220 600)"/>
<rect x="218" y="528" width="4" height="5" rx="2" fill="#d7dde6" opacity="0.18" transform="rotate(69 220 600)"/>
<rect x="218" y="525" width="4" height="8" rx="2" fill="#d7dde6" opacity="0.65" transform="rotate(92 220 600)"/>
<rect x="218" y="523" width="4" height="10" rx="2" fill="#d7dde6" opacity="0.79" transform="rotate(115 220 600)"/>
<rect x="218" y="511" width="4" height="22" rx="2" fill="#d7dde6" opacity="0.94" transform="rotate(138 220 600)"/>
  <circle cx="220" cy="600" r="64" fill="#05070a"/>
  <circle cx="220" cy="600" r="56" fill="none" stroke="#191e26" stroke-width="14"/>
  <circle cx="220" cy="600" r="51" fill="none" stroke="#d7dde6" stroke-width="5"/>
  <circle cx="220" cy="600" r="43" fill="#090d13" stroke="#222936" stroke-width="4"/>
  <circle cx="220" cy="600" r="24" fill="#101620" stroke="#2c3544" stroke-width="3"/>
  <path d="M180 552C202 538 240 538 262 555" stroke="#303846" stroke-width="3" fill="none" opacity="0.55"/>
  <path d="M176 642C208 659 240 657 265 638" stroke="#010305" stroke-width="10" fill="none" opacity="0.85"/>
  <text x="220" y="581" text-anchor="middle" class="compound-name">HARD</text>
  <text x="220" y="606" text-anchor="middle" class="compound-metric">93</text>
  <text x="220" y="625" text-anchor="middle" class="compound-label">TOTAL</text>
  <text x="220" y="683" text-anchor="middle" class="compound-sub">13 MONTH STINT</text>
</g>
  <g>
  <title>MEDIUM: 37 ACTIVE DAYS</title>
  <ellipse cx="500" cy="658" rx="78" ry="15" fill="#020407" opacity="0.55"/>
  <rect x="498" y="525" width="4" height="8" rx="2" fill="#ffd12a" opacity="0.65" transform="rotate(-138 500 600)"/>
<rect x="498" y="525" width="4" height="8" rx="2" fill="#ffd12a" opacity="0.65" transform="rotate(-127.38 500 600)"/>
<rect x="498" y="528" width="4" height="5" rx="2" fill="#ffd12a" opacity="0.18" transform="rotate(-116.77 500 600)"/>
<rect x="498" y="528" width="4" height="5" rx="2" fill="#ffd12a" opacity="0.18" transform="rotate(-106.15 500 600)"/>
<rect x="498" y="528" width="4" height="5" rx="2" fill="#ffd12a" opacity="0.18" transform="rotate(-95.54 500 600)"/>
<rect x="498" y="528" width="4" height="5" rx="2" fill="#ffd12a" opacity="0.18" transform="rotate(-84.92 500 600)"/>
<rect x="498" y="528" width="4" height="5" rx="2" fill="#ffd12a" opacity="0.18" transform="rotate(-74.31 500 600)"/>
<rect x="498" y="524" width="4" height="9" rx="2" fill="#ffd12a" opacity="0.68" transform="rotate(-63.69 500 600)"/>
<rect x="498" y="528" width="4" height="5" rx="2" fill="#ffd12a" opacity="0.18" transform="rotate(-53.08 500 600)"/>
<rect x="498" y="528" width="4" height="5" rx="2" fill="#ffd12a" opacity="0.18" transform="rotate(-42.46 500 600)"/>
<rect x="498" y="528" width="4" height="5" rx="2" fill="#ffd12a" opacity="0.18" transform="rotate(-31.85 500 600)"/>
<rect x="498" y="528" width="4" height="5" rx="2" fill="#ffd12a" opacity="0.18" transform="rotate(-21.23 500 600)"/>
<rect x="498" y="524" width="4" height="9" rx="2" fill="#ffd12a" opacity="0.68" transform="rotate(-10.62 500 600)"/>
<rect x="498" y="528" width="4" height="5" rx="2" fill="#ffd12a" opacity="0.18" transform="rotate(0 500 600)"/>
<rect x="498" y="528" width="4" height="5" rx="2" fill="#ffd12a" opacity="0.18" transform="rotate(10.62 500 600)"/>
<rect x="498" y="528" width="4" height="5" rx="2" fill="#ffd12a" opacity="0.18" transform="rotate(21.23 500 600)"/>
<rect x="498" y="528" width="4" height="5" rx="2" fill="#ffd12a" opacity="0.18" transform="rotate(31.85 500 600)"/>
<rect x="498" y="528" width="4" height="5" rx="2" fill="#ffd12a" opacity="0.18" transform="rotate(42.46 500 600)"/>
<rect x="498" y="528" width="4" height="5" rx="2" fill="#ffd12a" opacity="0.18" transform="rotate(53.08 500 600)"/>
<rect x="498" y="528" width="4" height="5" rx="2" fill="#ffd12a" opacity="0.18" transform="rotate(63.69 500 600)"/>
<rect x="498" y="528" width="4" height="5" rx="2" fill="#ffd12a" opacity="0.18" transform="rotate(74.31 500 600)"/>
<rect x="498" y="524" width="4" height="9" rx="2" fill="#ffd12a" opacity="0.68" transform="rotate(84.92 500 600)"/>
<rect x="498" y="525" width="4" height="8" rx="2" fill="#ffd12a" opacity="0.65" transform="rotate(95.54 500 600)"/>
<rect x="498" y="524" width="4" height="9" rx="2" fill="#ffd12a" opacity="0.68" transform="rotate(106.15 500 600)"/>
<rect x="498" y="521" width="4" height="12" rx="2" fill="#ffd12a" opacity="0.9" transform="rotate(116.77 500 600)"/>
<rect x="498" y="520" width="4" height="13" rx="2" fill="#ffd12a" opacity="0.94" transform="rotate(127.38 500 600)"/>
<rect x="498" y="519" width="4" height="14" rx="2" fill="#ffd12a" opacity="0.94" transform="rotate(138 500 600)"/>
  <circle cx="500" cy="600" r="64" fill="#05070a"/>
  <circle cx="500" cy="600" r="56" fill="none" stroke="#191e26" stroke-width="14"/>
  <circle cx="500" cy="600" r="51" fill="none" stroke="#ffd12a" stroke-width="5"/>
  <circle cx="500" cy="600" r="43" fill="#090d13" stroke="#222936" stroke-width="4"/>
  <circle cx="500" cy="600" r="24" fill="#101620" stroke="#2c3544" stroke-width="3"/>
  <path d="M460 552C482 538 520 538 542 555" stroke="#303846" stroke-width="3" fill="none" opacity="0.55"/>
  <path d="M456 642C488 659 520 657 545 638" stroke="#010305" stroke-width="10" fill="none" opacity="0.85"/>
  <text x="500" y="581" text-anchor="middle" class="compound-name">MEDIUM</text>
  <text x="500" y="606" text-anchor="middle" class="compound-metric">37</text>
  <text x="500" y="625" text-anchor="middle" class="compound-label">ACTIVE DAYS</text>
  <text x="500" y="683" text-anchor="middle" class="compound-sub">7 ACTIVE MONTHS</text>
</g>
  <g>
  <title>SOFT: 24 BEST DAY</title>
  <ellipse cx="780" cy="658" rx="78" ry="15" fill="#020407" opacity="0.55"/>
  <rect x="778" y="524" width="4" height="9" rx="2" fill="#e10600" opacity="0.7" transform="rotate(-138 780 600)"/>
<rect x="778" y="522" width="4" height="11" rx="2" fill="#e10600" opacity="0.83" transform="rotate(-128.48 780 600)"/>
<rect x="778" y="528" width="4" height="5" rx="2" fill="#e10600" opacity="0.18" transform="rotate(-118.97 780 600)"/>
<rect x="778" y="528" width="4" height="5" rx="2" fill="#e10600" opacity="0.18" transform="rotate(-109.45 780 600)"/>
<rect x="778" y="528" width="4" height="5" rx="2" fill="#e10600" opacity="0.18" transform="rotate(-99.93 780 600)"/>
<rect x="778" y="528" width="4" height="5" rx="2" fill="#e10600" opacity="0.18" transform="rotate(-90.41 780 600)"/>
<rect x="778" y="524" width="4" height="9" rx="2" fill="#e10600" opacity="0.7" transform="rotate(-80.9 780 600)"/>
<rect x="778" y="511" width="4" height="22" rx="2" fill="#e10600" opacity="0.94" transform="rotate(-71.38 780 600)"/>
<rect x="778" y="524" width="4" height="9" rx="2" fill="#e10600" opacity="0.66" transform="rotate(-61.86 780 600)"/>
<rect x="778" y="524" width="4" height="9" rx="2" fill="#e10600" opacity="0.66" transform="rotate(-52.34 780 600)"/>
<rect x="778" y="523" width="4" height="10" rx="2" fill="#e10600" opacity="0.74" transform="rotate(-42.83 780 600)"/>
<rect x="778" y="524" width="4" height="9" rx="2" fill="#e10600" opacity="0.66" transform="rotate(-33.31 780 600)"/>
<rect x="778" y="524" width="4" height="9" rx="2" fill="#e10600" opacity="0.66" transform="rotate(-23.79 780 600)"/>
<rect x="778" y="524" width="4" height="9" rx="2" fill="#e10600" opacity="0.66" transform="rotate(-14.28 780 600)"/>
<rect x="778" y="524" width="4" height="9" rx="2" fill="#e10600" opacity="0.66" transform="rotate(-4.76 780 600)"/>
<rect x="778" y="524" width="4" height="9" rx="2" fill="#e10600" opacity="0.66" transform="rotate(4.76 780 600)"/>
<rect x="778" y="523" width="4" height="10" rx="2" fill="#e10600" opacity="0.79" transform="rotate(14.28 780 600)"/>
<rect x="778" y="523" width="4" height="10" rx="2" fill="#e10600" opacity="0.74" transform="rotate(23.79 780 600)"/>
<rect x="778" y="524" width="4" height="9" rx="2" fill="#e10600" opacity="0.66" transform="rotate(33.31 780 600)"/>
<rect x="778" y="524" width="4" height="9" rx="2" fill="#e10600" opacity="0.66" transform="rotate(42.83 780 600)"/>
<rect x="778" y="524" width="4" height="9" rx="2" fill="#e10600" opacity="0.66" transform="rotate(52.34 780 600)"/>
<rect x="778" y="524" width="4" height="9" rx="2" fill="#e10600" opacity="0.66" transform="rotate(61.86 780 600)"/>
<rect x="778" y="524" width="4" height="9" rx="2" fill="#e10600" opacity="0.7" transform="rotate(71.38 780 600)"/>
<rect x="778" y="524" width="4" height="9" rx="2" fill="#e10600" opacity="0.66" transform="rotate(80.9 780 600)"/>
<rect x="778" y="523" width="4" height="10" rx="2" fill="#e10600" opacity="0.79" transform="rotate(90.41 780 600)"/>
<rect x="778" y="523" width="4" height="10" rx="2" fill="#e10600" opacity="0.79" transform="rotate(99.93 780 600)"/>
<rect x="778" y="523" width="4" height="10" rx="2" fill="#e10600" opacity="0.79" transform="rotate(109.45 780 600)"/>
<rect x="778" y="522" width="4" height="11" rx="2" fill="#e10600" opacity="0.83" transform="rotate(118.97 780 600)"/>
<rect x="778" y="523" width="4" height="10" rx="2" fill="#e10600" opacity="0.79" transform="rotate(128.48 780 600)"/>
<rect x="778" y="528" width="4" height="5" rx="2" fill="#e10600" opacity="0.18" transform="rotate(138 780 600)"/>
  <circle cx="780" cy="600" r="64" fill="#05070a"/>
  <circle cx="780" cy="600" r="56" fill="none" stroke="#191e26" stroke-width="14"/>
  <circle cx="780" cy="600" r="51" fill="none" stroke="#e10600" stroke-width="5"/>
  <circle cx="780" cy="600" r="43" fill="#090d13" stroke="#222936" stroke-width="4"/>
  <circle cx="780" cy="600" r="24" fill="#101620" stroke="#2c3544" stroke-width="3"/>
  <path d="M740 552C762 538 800 538 822 555" stroke="#303846" stroke-width="3" fill="none" opacity="0.55"/>
  <path d="M736 642C768 659 800 657 825 638" stroke="#010305" stroke-width="10" fill="none" opacity="0.85"/>
  <text x="780" y="581" text-anchor="middle" class="compound-name">SOFT</text>
  <text x="780" y="606" text-anchor="middle" class="compound-metric">24</text>
  <text x="780" y="625" text-anchor="middle" class="compound-label">BEST DAY</text>
  <text x="780" y="683" text-anchor="middle" class="compound-sub">05.05</text>
</g>
</g>
</svg>
