<svg width="1000" height="620" viewBox="0 0 1000 620" fill="none" xmlns="http://www.w3.org/2000/svg" xmlns:xlink="http://www.w3.org/1999/xlink" role="img" aria-labelledby="title desc">
  <title id="title">nariokeith Monaco contribution circuit</title>
  <desc id="desc">A polished 3D Monaco circuit showing 37 real GitHub contributions as skyline height and telemetry.</desc>
  <style>
    .title { font: 800 28px Arial, sans-serif; letter-spacing: 3px; fill: #f0f6fc; }
    .subtitle { font: 600 12px Arial, sans-serif; letter-spacing: 2px; fill: #8b949e; }
    .label { font: 700 14px Arial, sans-serif; fill: #f0f6fc; }
    .muted { font: 600 11px Arial, sans-serif; fill: #8b949e; }
    .month { font: 600 10px Arial, sans-serif; fill: #8b949e; }
    .track-label { font: 700 10px Arial, sans-serif; letter-spacing: 1px; fill: #aeb7c2; }
  </style>
  <defs>
    <linearGradient id="sea" x1="660" y1="300" x2="970" y2="600" gradientUnits="userSpaceOnUse">
      <stop stop-color="#092536"/>
      <stop offset="1" stop-color="#05131d"/>
    </linearGradient>
    <radialGradient id="glow" cx="0" cy="0" r="1" gradientUnits="userSpaceOnUse" gradientTransform="translate(520 280) rotate(90) scale(260 420)">
      <stop stop-color="#e10600" stop-opacity="0.28"/>
      <stop offset="1" stop-color="#e10600" stop-opacity="0"/>
    </radialGradient>
    <filter id="shadow" x="-20%" y="-20%" width="140%" height="140%">
      <feDropShadow dx="0" dy="18" stdDeviation="14" flood-color="#000000" flood-opacity="0.55"/>
    </filter>
  </defs>

  <rect width="1000" height="620" rx="18" fill="#0d1117"/>
  <rect x="1" y="1" width="998" height="618" rx="17" stroke="#30363d"/>
  <path d="M632 354C710 306 786 298 872 336C956 374 984 466 950 596H624C584 494 574 398 632 354Z" fill="url(#sea)" opacity="0.92"/>
  <rect width="1000" height="620" rx="18" fill="url(#glow)"/>

  <text x="50%" y="42" text-anchor="middle" class="title">MONTE CARLO</text>
  <text x="50%" y="64" text-anchor="middle" class="subtitle">MONACO CONTRIBUTION CIRCUIT</text>

  <g transform="matrix(0.72,0,-0.08,0.56,258,82)">
    <path d="M54 86L184 42L318 74L438 42L572 76L714 44L858 78" stroke="#3d4652" stroke-width="2" fill="none" opacity="0.58"/>
<path d="M72 164L210 122L360 156L492 118L630 146L812 116" stroke="#3d4652" stroke-width="2" fill="none" opacity="0.58"/>
<path d="M54 244L220 206L352 226L514 198L672 230L858 194" stroke="#3d4652" stroke-width="2" fill="none" opacity="0.58"/>
<path d="M98 336L254 292L410 320L566 278L718 318L876 288" stroke="#3d4652" stroke-width="2" fill="none" opacity="0.58"/>
<path d="M114 420L284 386L450 408L620 366L806 408" stroke="#3d4652" stroke-width="2" fill="none" opacity="0.58"/>
<path d="M164 52L126 150L172 236L132 332L204 466" stroke="#3d4652" stroke-width="2" fill="none" opacity="0.58"/>
<path d="M296 58L274 138L318 210L286 306L340 438" stroke="#3d4652" stroke-width="2" fill="none" opacity="0.58"/>
<path d="M440 50L402 148L470 242L424 344L488 452" stroke="#3d4652" stroke-width="2" fill="none" opacity="0.58"/>
<path d="M596 64L548 160L624 250L570 354L648 474" stroke="#3d4652" stroke-width="2" fill="none" opacity="0.58"/>
<path d="M754 54L694 166L784 252L734 356L824 452" stroke="#3d4652" stroke-width="2" fill="none" opacity="0.58"/>

    <g>
      <g opacity="0.96">
  <g>
  <title>May: 13 contributions</title>
  <path d="M64 144l8 -4.4h18l-8 4.4z" fill="#27303c"/>
  <path d="M82 144l8 -4.4v44l-8 4.4z" fill="#00000a"/>
  <rect x="64" y="144" width="18" height="44" fill="#0f1824"/>
  <path d="M64 188h18l8 -4.4h-18z" fill="#000000" opacity="0.55"/>
  <rect x="68" y="153" width="10" height="2" rx="1" fill="#26a641" opacity="0.72"/><rect x="68" y="166" width="10" height="2" rx="1" fill="#26a641" opacity="0.72"/>
</g>
  <g>
  <title>May: 13 contributions</title>
  <path d="M84 110l10 -5.5h24l-10 5.5z" fill="#2f3844"/>
  <path d="M108 110l10 -5.5v85l-10 5.5z" fill="#000612"/>
  <rect x="84" y="110" width="24" height="85" fill="#17202c"/>
  <path d="M84 195h24l10 -5.5h-24z" fill="#000000" opacity="0.55"/>
  <rect x="88" y="119" width="16" height="2" rx="1" fill="#26a641" opacity="0.72"/><rect x="88" y="132" width="16" height="2" rx="1" fill="#26a641" opacity="0.72"/><rect x="88" y="145" width="16" height="2" rx="1" fill="#26a641" opacity="0.72"/><rect x="88" y="158" width="16" height="2" rx="1" fill="#26a641" opacity="0.72"/>
</g>
  <g>
  <title>May: 13 contributions</title>
  <path d="M112 166l7 -3.8500000000000005h14l-7 3.8500000000000005z" fill="#232c38"/>
  <path d="M126 166l7 -3.8500000000000005v36l-7 3.8500000000000005z" fill="#000006"/>
  <rect x="112" y="166" width="14" height="36" fill="#0b1420"/>
  <path d="M112 202h14l7 -3.8500000000000005h-14z" fill="#000000" opacity="0.55"/>
  <rect x="116" y="175" width="6" height="2" rx="1" fill="#26a641" opacity="0.72"/><rect x="116" y="188" width="6" height="2" rx="1" fill="#26a641" opacity="0.72"/>
</g>
</g>
<g opacity="0.96">
  <g>
  <title>Jun: 1 contribution</title>
  <path d="M118 134l8 -4.4h18l-8 4.4z" fill="#27303c"/>
  <path d="M136 134l8 -4.4v22l-8 4.4z" fill="#00000a"/>
  <rect x="118" y="134" width="18" height="22" fill="#0f1824"/>
  <path d="M118 156h18l8 -4.4h-18z" fill="#000000" opacity="0.55"/>
  <rect x="122" y="143" width="10" height="2" rx="1" fill="#0e4429" opacity="0.72"/>
</g>
  <g>
  <title>Jun: 1 contribution</title>
  <path d="M138 129l10 -5.5h24l-10 5.5z" fill="#2f3844"/>
  <path d="M162 129l10 -5.5v34l-10 5.5z" fill="#000612"/>
  <rect x="138" y="129" width="24" height="34" fill="#17202c"/>
  <path d="M138 163h24l10 -5.5h-24z" fill="#000000" opacity="0.55"/>
  <rect x="142" y="138" width="16" height="2" rx="1" fill="#0e4429" opacity="0.72"/>
</g>
  <g>
  <title>Jun: 1 contribution</title>
  <path d="M166 156l7 -3.8500000000000005h14l-7 3.8500000000000005z" fill="#232c38"/>
  <path d="M180 156l7 -3.8500000000000005v14l-7 3.8500000000000005z" fill="#000006"/>
  <rect x="166" y="156" width="14" height="14" fill="#0b1420"/>
  <path d="M166 170h14l7 -3.8500000000000005h-14z" fill="#000000" opacity="0.55"/>
  <rect x="170" y="165" width="6" height="2" rx="1" fill="#0e4429" opacity="0.72"/>
</g>
</g>
<g opacity="0.62">
  <g>
  <title>Jul: 0 contributions</title>
  <path d="M178 162l8 -4.4h18l-8 4.4z" fill="#212830"/>
  <path d="M196 162l8 -4.4v14l-8 4.4z" fill="#000000"/>
  <rect x="178" y="162" width="18" height="14" fill="#091018"/>
  <path d="M178 176h18l8 -4.4h-18z" fill="#000000" opacity="0.55"/>
  <rect x="182" y="171" width="10" height="2" rx="1" fill="#3d4652" opacity="0.18"/>
</g>
  <g>
  <title>Jul: 0 contributions</title>
  <path d="M198 165l10 -5.5h24l-10 5.5z" fill="#293038"/>
  <path d="M222 165l10 -5.5v18l-10 5.5z" fill="#000006"/>
  <rect x="198" y="165" width="24" height="18" fill="#111820"/>
  <path d="M198 183h24l10 -5.5h-24z" fill="#000000" opacity="0.55"/>
  <rect x="202" y="174" width="16" height="2" rx="1" fill="#3d4652" opacity="0.18"/>
</g>
  <g>
  <title>Jul: 0 contributions</title>
  <path d="M226 178l7 -3.8500000000000005h14l-7 3.8500000000000005z" fill="#1d242c"/>
  <path d="M240 178l7 -3.8500000000000005v12l-7 3.8500000000000005z" fill="#000000"/>
  <rect x="226" y="178" width="14" height="12" fill="#050c14"/>
  <path d="M226 190h14l7 -3.8500000000000005h-14z" fill="#000000" opacity="0.55"/>
  <rect x="230" y="187" width="6" height="2" rx="1" fill="#3d4652" opacity="0.18"/>
</g>
</g>
<g opacity="0.62">
  <g>
  <title>Aug: 0 contributions</title>
  <path d="M242 128l8 -4.4h18l-8 4.4z" fill="#212830"/>
  <path d="M260 128l8 -4.4v14l-8 4.4z" fill="#000000"/>
  <rect x="242" y="128" width="18" height="14" fill="#091018"/>
  <path d="M242 142h18l8 -4.4h-18z" fill="#000000" opacity="0.55"/>
  <rect x="246" y="137" width="10" height="2" rx="1" fill="#3d4652" opacity="0.18"/>
</g>
  <g>
  <title>Aug: 0 contributions</title>
  <path d="M262 131l10 -5.5h24l-10 5.5z" fill="#293038"/>
  <path d="M286 131l10 -5.5v18l-10 5.5z" fill="#000006"/>
  <rect x="262" y="131" width="24" height="18" fill="#111820"/>
  <path d="M262 149h24l10 -5.5h-24z" fill="#000000" opacity="0.55"/>
  <rect x="266" y="140" width="16" height="2" rx="1" fill="#3d4652" opacity="0.18"/>
</g>
  <g>
  <title>Aug: 0 contributions</title>
  <path d="M290 144l7 -3.8500000000000005h14l-7 3.8500000000000005z" fill="#1d242c"/>
  <path d="M304 144l7 -3.8500000000000005v12l-7 3.8500000000000005z" fill="#000000"/>
  <rect x="290" y="144" width="14" height="12" fill="#050c14"/>
  <path d="M290 156h14l7 -3.8500000000000005h-14z" fill="#000000" opacity="0.55"/>
  <rect x="294" y="153" width="6" height="2" rx="1" fill="#3d4652" opacity="0.18"/>
</g>
</g>
<g opacity="0.96">
  <g>
  <title>Sep: 2 contributions</title>
  <path d="M306 146l8 -4.4h18l-8 4.4z" fill="#27303c"/>
  <path d="M324 146l8 -4.4v24l-8 4.4z" fill="#00000a"/>
  <rect x="306" y="146" width="18" height="24" fill="#0f1824"/>
  <path d="M306 170h18l8 -4.4h-18z" fill="#000000" opacity="0.55"/>
  <rect x="310" y="155" width="10" height="2" rx="1" fill="#0e4429" opacity="0.72"/>
</g>
  <g>
  <title>Sep: 2 contributions</title>
  <path d="M326 139l10 -5.5h24l-10 5.5z" fill="#2f3844"/>
  <path d="M350 139l10 -5.5v38l-10 5.5z" fill="#000612"/>
  <rect x="326" y="139" width="24" height="38" fill="#17202c"/>
  <path d="M326 177h24l10 -5.5h-24z" fill="#000000" opacity="0.55"/>
  <rect x="330" y="148" width="16" height="2" rx="1" fill="#0e4429" opacity="0.72"/><rect x="330" y="161" width="16" height="2" rx="1" fill="#0e4429" opacity="0.72"/>
</g>
  <g>
  <title>Sep: 2 contributions</title>
  <path d="M354 168l7 -3.8500000000000005h14l-7 3.8500000000000005z" fill="#232c38"/>
  <path d="M368 168l7 -3.8500000000000005v16l-7 3.8500000000000005z" fill="#000006"/>
  <rect x="354" y="168" width="14" height="16" fill="#0b1420"/>
  <path d="M354 184h14l7 -3.8500000000000005h-14z" fill="#000000" opacity="0.55"/>
  <rect x="358" y="177" width="6" height="2" rx="1" fill="#0e4429" opacity="0.72"/>
</g>
</g>
<g opacity="0.62">
  <g>
  <title>Oct: 0 contributions</title>
  <path d="M370 122l8 -4.4h18l-8 4.4z" fill="#212830"/>
  <path d="M388 122l8 -4.4v14l-8 4.4z" fill="#000000"/>
  <rect x="370" y="122" width="18" height="14" fill="#091018"/>
  <path d="M370 136h18l8 -4.4h-18z" fill="#000000" opacity="0.55"/>
  <rect x="374" y="131" width="10" height="2" rx="1" fill="#3d4652" opacity="0.18"/>
</g>
  <g>
  <title>Oct: 0 contributions</title>
  <path d="M390 125l10 -5.5h24l-10 5.5z" fill="#293038"/>
  <path d="M414 125l10 -5.5v18l-10 5.5z" fill="#000006"/>
  <rect x="390" y="125" width="24" height="18" fill="#111820"/>
  <path d="M390 143h24l10 -5.5h-24z" fill="#000000" opacity="0.55"/>
  <rect x="394" y="134" width="16" height="2" rx="1" fill="#3d4652" opacity="0.18"/>
</g>
  <g>
  <title>Oct: 0 contributions</title>
  <path d="M418 138l7 -3.8500000000000005h14l-7 3.8500000000000005z" fill="#1d242c"/>
  <path d="M432 138l7 -3.8500000000000005v12l-7 3.8500000000000005z" fill="#000000"/>
  <rect x="418" y="138" width="14" height="12" fill="#050c14"/>
  <path d="M418 150h14l7 -3.8500000000000005h-14z" fill="#000000" opacity="0.55"/>
  <rect x="422" y="147" width="6" height="2" rx="1" fill="#3d4652" opacity="0.18"/>
</g>
</g>
<g opacity="0.96">
  <g>
  <title>Nov: 2 contributions</title>
  <path d="M436 146l8 -4.4h18l-8 4.4z" fill="#27303c"/>
  <path d="M454 146l8 -4.4v20l-8 4.4z" fill="#00000a"/>
  <rect x="436" y="146" width="18" height="20" fill="#0f1824"/>
  <path d="M436 166h18l8 -4.4h-18z" fill="#000000" opacity="0.55"/>
  <rect x="440" y="155" width="10" height="2" rx="1" fill="#0e4429" opacity="0.72"/>
</g>
  <g>
  <title>Nov: 2 contributions</title>
  <path d="M456 135l10 -5.5h24l-10 5.5z" fill="#2f3844"/>
  <path d="M480 135l10 -5.5v38l-10 5.5z" fill="#000612"/>
  <rect x="456" y="135" width="24" height="38" fill="#17202c"/>
  <path d="M456 173h24l10 -5.5h-24z" fill="#000000" opacity="0.55"/>
  <rect x="460" y="144" width="16" height="2" rx="1" fill="#0e4429" opacity="0.72"/><rect x="460" y="157" width="16" height="2" rx="1" fill="#0e4429" opacity="0.72"/>
</g>
  <g>
  <title>Nov: 2 contributions</title>
  <path d="M484 164l7 -3.8500000000000005h14l-7 3.8500000000000005z" fill="#232c38"/>
  <path d="M498 164l7 -3.8500000000000005v16l-7 3.8500000000000005z" fill="#000006"/>
  <rect x="484" y="164" width="14" height="16" fill="#0b1420"/>
  <path d="M484 180h14l7 -3.8500000000000005h-14z" fill="#000000" opacity="0.55"/>
  <rect x="488" y="173" width="6" height="2" rx="1" fill="#0e4429" opacity="0.72"/>
</g>
</g>
<g opacity="0.62">
  <g>
  <title>Dec: 0 contributions</title>
  <path d="M502 118l8 -4.4h18l-8 4.4z" fill="#212830"/>
  <path d="M520 118l8 -4.4v14l-8 4.4z" fill="#000000"/>
  <rect x="502" y="118" width="18" height="14" fill="#091018"/>
  <path d="M502 132h18l8 -4.4h-18z" fill="#000000" opacity="0.55"/>
  <rect x="506" y="127" width="10" height="2" rx="1" fill="#3d4652" opacity="0.18"/>
</g>
  <g>
  <title>Dec: 0 contributions</title>
  <path d="M522 121l10 -5.5h24l-10 5.5z" fill="#293038"/>
  <path d="M546 121l10 -5.5v18l-10 5.5z" fill="#000006"/>
  <rect x="522" y="121" width="24" height="18" fill="#111820"/>
  <path d="M522 139h24l10 -5.5h-24z" fill="#000000" opacity="0.55"/>
  <rect x="526" y="130" width="16" height="2" rx="1" fill="#3d4652" opacity="0.18"/>
</g>
  <g>
  <title>Dec: 0 contributions</title>
  <path d="M550 134l7 -3.8500000000000005h14l-7 3.8500000000000005z" fill="#1d242c"/>
  <path d="M564 134l7 -3.8500000000000005v12l-7 3.8500000000000005z" fill="#000000"/>
  <rect x="550" y="134" width="14" height="12" fill="#050c14"/>
  <path d="M550 146h14l7 -3.8500000000000005h-14z" fill="#000000" opacity="0.55"/>
  <rect x="554" y="143" width="6" height="2" rx="1" fill="#3d4652" opacity="0.18"/>
</g>
</g>
<g opacity="0.62">
  <g>
  <title>Jan: 0 contributions</title>
  <path d="M570 144l8 -4.4h18l-8 4.4z" fill="#212830"/>
  <path d="M588 144l8 -4.4v14l-8 4.4z" fill="#000000"/>
  <rect x="570" y="144" width="18" height="14" fill="#091018"/>
  <path d="M570 158h18l8 -4.4h-18z" fill="#000000" opacity="0.55"/>
  <rect x="574" y="153" width="10" height="2" rx="1" fill="#3d4652" opacity="0.18"/>
</g>
  <g>
  <title>Jan: 0 contributions</title>
  <path d="M590 147l10 -5.5h24l-10 5.5z" fill="#293038"/>
  <path d="M614 147l10 -5.5v18l-10 5.5z" fill="#000006"/>
  <rect x="590" y="147" width="24" height="18" fill="#111820"/>
  <path d="M590 165h24l10 -5.5h-24z" fill="#000000" opacity="0.55"/>
  <rect x="594" y="156" width="16" height="2" rx="1" fill="#3d4652" opacity="0.18"/>
</g>
  <g>
  <title>Jan: 0 contributions</title>
  <path d="M618 160l7 -3.8500000000000005h14l-7 3.8500000000000005z" fill="#1d242c"/>
  <path d="M632 160l7 -3.8500000000000005v12l-7 3.8500000000000005z" fill="#000000"/>
  <rect x="618" y="160" width="14" height="12" fill="#050c14"/>
  <path d="M618 172h14l7 -3.8500000000000005h-14z" fill="#000000" opacity="0.55"/>
  <rect x="622" y="169" width="6" height="2" rx="1" fill="#3d4652" opacity="0.18"/>
</g>
</g>
<g opacity="0.62">
  <g>
  <title>Feb: 0 contributions</title>
  <path d="M638 112l8 -4.4h18l-8 4.4z" fill="#212830"/>
  <path d="M656 112l8 -4.4v14l-8 4.4z" fill="#000000"/>
  <rect x="638" y="112" width="18" height="14" fill="#091018"/>
  <path d="M638 126h18l8 -4.4h-18z" fill="#000000" opacity="0.55"/>
  <rect x="642" y="121" width="10" height="2" rx="1" fill="#3d4652" opacity="0.18"/>
</g>
  <g>
  <title>Feb: 0 contributions</title>
  <path d="M658 115l10 -5.5h24l-10 5.5z" fill="#293038"/>
  <path d="M682 115l10 -5.5v18l-10 5.5z" fill="#000006"/>
  <rect x="658" y="115" width="24" height="18" fill="#111820"/>
  <path d="M658 133h24l10 -5.5h-24z" fill="#000000" opacity="0.55"/>
  <rect x="662" y="124" width="16" height="2" rx="1" fill="#3d4652" opacity="0.18"/>
</g>
  <g>
  <title>Feb: 0 contributions</title>
  <path d="M686 128l7 -3.8500000000000005h14l-7 3.8500000000000005z" fill="#1d242c"/>
  <path d="M700 128l7 -3.8500000000000005v12l-7 3.8500000000000005z" fill="#000000"/>
  <rect x="686" y="128" width="14" height="12" fill="#050c14"/>
  <path d="M686 140h14l7 -3.8500000000000005h-14z" fill="#000000" opacity="0.55"/>
  <rect x="690" y="137" width="6" height="2" rx="1" fill="#3d4652" opacity="0.18"/>
</g>
</g>
<g opacity="0.62">
  <g>
  <title>Mar: 0 contributions</title>
  <path d="M708 140l8 -4.4h18l-8 4.4z" fill="#212830"/>
  <path d="M726 140l8 -4.4v14l-8 4.4z" fill="#000000"/>
  <rect x="708" y="140" width="18" height="14" fill="#091018"/>
  <path d="M708 154h18l8 -4.4h-18z" fill="#000000" opacity="0.55"/>
  <rect x="712" y="149" width="10" height="2" rx="1" fill="#3d4652" opacity="0.18"/>
</g>
  <g>
  <title>Mar: 0 contributions</title>
  <path d="M728 143l10 -5.5h24l-10 5.5z" fill="#293038"/>
  <path d="M752 143l10 -5.5v18l-10 5.5z" fill="#000006"/>
  <rect x="728" y="143" width="24" height="18" fill="#111820"/>
  <path d="M728 161h24l10 -5.5h-24z" fill="#000000" opacity="0.55"/>
  <rect x="732" y="152" width="16" height="2" rx="1" fill="#3d4652" opacity="0.18"/>
</g>
  <g>
  <title>Mar: 0 contributions</title>
  <path d="M756 156l7 -3.8500000000000005h14l-7 3.8500000000000005z" fill="#1d242c"/>
  <path d="M770 156l7 -3.8500000000000005v12l-7 3.8500000000000005z" fill="#000000"/>
  <rect x="756" y="156" width="14" height="12" fill="#050c14"/>
  <path d="M756 168h14l7 -3.8500000000000005h-14z" fill="#000000" opacity="0.55"/>
  <rect x="760" y="165" width="6" height="2" rx="1" fill="#3d4652" opacity="0.18"/>
</g>
</g>
<g opacity="0.62">
  <g>
  <title>Apr: 0 contributions</title>
  <path d="M780 120l8 -4.4h18l-8 4.4z" fill="#212830"/>
  <path d="M798 120l8 -4.4v14l-8 4.4z" fill="#000000"/>
  <rect x="780" y="120" width="18" height="14" fill="#091018"/>
  <path d="M780 134h18l8 -4.4h-18z" fill="#000000" opacity="0.55"/>
  <rect x="784" y="129" width="10" height="2" rx="1" fill="#3d4652" opacity="0.18"/>
</g>
  <g>
  <title>Apr: 0 contributions</title>
  <path d="M800 123l10 -5.5h24l-10 5.5z" fill="#293038"/>
  <path d="M824 123l10 -5.5v18l-10 5.5z" fill="#000006"/>
  <rect x="800" y="123" width="24" height="18" fill="#111820"/>
  <path d="M800 141h24l10 -5.5h-24z" fill="#000000" opacity="0.55"/>
  <rect x="804" y="132" width="16" height="2" rx="1" fill="#3d4652" opacity="0.18"/>
</g>
  <g>
  <title>Apr: 0 contributions</title>
  <path d="M828 136l7 -3.8500000000000005h14l-7 3.8500000000000005z" fill="#1d242c"/>
  <path d="M842 136l7 -3.8500000000000005v12l-7 3.8500000000000005z" fill="#000000"/>
  <rect x="828" y="136" width="14" height="12" fill="#050c14"/>
  <path d="M828 148h14l7 -3.8500000000000005h-14z" fill="#000000" opacity="0.55"/>
  <rect x="832" y="145" width="6" height="2" rx="1" fill="#3d4652" opacity="0.18"/>
</g>
</g>
<g opacity="0.96">
  <g>
  <title>May: 19 contributions</title>
  <path d="M846 113l8 -4.4h18l-8 4.4z" fill="#27303c"/>
  <path d="M864 113l8 -4.4v57l-8 4.4z" fill="#00000a"/>
  <rect x="846" y="113" width="18" height="57" fill="#0f1824"/>
  <path d="M846 170h18l8 -4.4h-18z" fill="#000000" opacity="0.55"/>
  <rect x="850" y="122" width="10" height="2" rx="1" fill="#39d353" opacity="0.72"/><rect x="850" y="135" width="10" height="2" rx="1" fill="#39d353" opacity="0.72"/><rect x="850" y="148" width="10" height="2" rx="1" fill="#39d353" opacity="0.72"/>
</g>
  <g>
  <title>May: 19 contributions</title>
  <path d="M866 67l10 -5.5h24l-10 5.5z" fill="#2f3844"/>
  <path d="M890 67l10 -5.5v110l-10 5.5z" fill="#000612"/>
  <rect x="866" y="67" width="24" height="110" fill="#17202c"/>
  <path d="M866 177h24l10 -5.5h-24z" fill="#000000" opacity="0.55"/>
  <rect x="870" y="76" width="16" height="2" rx="1" fill="#39d353" opacity="0.72"/><rect x="870" y="89" width="16" height="2" rx="1" fill="#39d353" opacity="0.72"/><rect x="870" y="102" width="16" height="2" rx="1" fill="#39d353" opacity="0.72"/><rect x="870" y="115" width="16" height="2" rx="1" fill="#39d353" opacity="0.72"/><rect x="870" y="128" width="16" height="2" rx="1" fill="#39d353" opacity="0.72"/>
</g>
  <g>
  <title>May: 19 contributions</title>
  <path d="M894 138l7 -3.8500000000000005h14l-7 3.8500000000000005z" fill="#232c38"/>
  <path d="M908 138l7 -3.8500000000000005v46l-7 3.8500000000000005z" fill="#000006"/>
  <rect x="894" y="138" width="14" height="46" fill="#0b1420"/>
  <path d="M894 184h14l7 -3.8500000000000005h-14z" fill="#000000" opacity="0.55"/>
  <rect x="898" y="147" width="6" height="2" rx="1" fill="#39d353" opacity="0.72"/><rect x="898" y="160" width="6" height="2" rx="1" fill="#39d353" opacity="0.72"/>
</g>
</g>
    </g>

    <path d="M 104.50658,653.97079 C 104.50658,653.97079 84.965034,629.56873 79.834481,596.08515 C 79.834481,596.08515 74.973956,554.23062 75.243997,532.3584 C 75.243997,532.3584 77.404225,475.92227 85.50508,450.80965 C 85.50508,450.80965 93.335916,414.35577 109.26763,387.89296 L 130.86994,353.05921 C 130.86994,353.05921 134.82662,338.97228 148.55254,344.16813 C 148.55254,344.16813 164.35349,348.1987 189.46616,348.1987 L 339.60219,344.95836 C 339.60219,344.95836 350.40331,344.41832 369.57538,337.39752 C 369.57538,337.39752 382.80679,333.6172 398.73845,333.6172 L 464.89557,330.64679 C 464.89557,330.64679 470.02615,332.80707 485.68779,322.27592 L 501.88952,308.50449 C 501.88952,308.50449 510.80047,296.08313 508.91022,291.22263 C 508.91022,291.22263 509.45033,284.20187 507.29006,278.53133 L 486.7679,237.48687 C 486.7679,237.48687 482.17744,228.90319 483.44088,219.42358 C 483.44088,219.42358 483.46952,211.9309 486.48858,209.16245 L 578.03766,122.45467 C 578.03766,122.45467 589.37879,111.92347 595.31947,111.92347 C 595.31947,111.92347 605.04054,109.49323 604.23043,121.10449 C 604.23043,121.10449 603.96043,158.09841 606.9307,172.13996 L 610.98113,190.77187 C 610.98113,190.77187 612.06126,202.38316 621.24229,200.76303 C 621.24229,200.76303 629.07308,200.49299 629.34315,190.77187 L 628.533,162.68893 C 628.533,162.68893 625.56265,148.37737 642.57452,147.83732 L 670.11743,146.75721 C 670.11743,146.75721 681.72868,145.13703 679.2984,160.52866 L 671.4676,194.01228 C 671.4676,194.01228 651.48542,262.59958 609.3609,309.5846 C 609.3609,309.5846 552.9249,355.21942 502.4296,366.29061 C 502.4296,366.29061 485.68779,372.23126 445.4535,373.58144 L 349.85202,375.86671 C 349.85202,375.86671 345.85264,380.74992 346.08288,385.46271 L 345.12781,394.57255 C 345.12781,394.57255 336.70589,395.4736 333.41139,395.55892 L 310.68925,395.55892 L 300.98805,390.32318 C 300.98805,390.32318 291.8071,382.2223 281.81601,384.38256 L 221.59959,384.65261 L 180.2852,386.27274 C 180.2852,386.27274 161.65323,385.46271 154.63245,402.47446 C 154.63245,402.47446 143.70623,423.70454 134.42303,477.53919 L 140.46862,483.78999 C 140.46862,483.78999 143.75175,485.72297 144.35154,493.48856 L 145.51777,552.0814 C 145.51777,552.0814 145.45152,560.71138 133.03009,576.91313 C 133.03009,576.91313 124.37277,587.95117 130.04328,610.09356 C 130.04328,610.09356 138.7007,636.31942 162.46329,654.41137 C 162.46329,654.41137 180.01513,670.61309 191.6264,674.93354 C 191.6264,674.93354 205.93792,680.33415 204.04778,693.83555 C 204.04778,693.83555 204.04778,703.82663 190.27624,703.28655 L 116.34799,695.18571 C 116.34799,695.18571 102.80682,695.4359 106.85727,682.20447 C 106.85727,682.20447 115.06333,666.1136 104.50658,653.97079 z" transform="translate(18 30)" stroke="#1d0304" stroke-width="42" stroke-linecap="round" stroke-linejoin="round" opacity="0.95"/>
    <path d="M 104.50658,653.97079 C 104.50658,653.97079 84.965034,629.56873 79.834481,596.08515 C 79.834481,596.08515 74.973956,554.23062 75.243997,532.3584 C 75.243997,532.3584 77.404225,475.92227 85.50508,450.80965 C 85.50508,450.80965 93.335916,414.35577 109.26763,387.89296 L 130.86994,353.05921 C 130.86994,353.05921 134.82662,338.97228 148.55254,344.16813 C 148.55254,344.16813 164.35349,348.1987 189.46616,348.1987 L 339.60219,344.95836 C 339.60219,344.95836 350.40331,344.41832 369.57538,337.39752 C 369.57538,337.39752 382.80679,333.6172 398.73845,333.6172 L 464.89557,330.64679 C 464.89557,330.64679 470.02615,332.80707 485.68779,322.27592 L 501.88952,308.50449 C 501.88952,308.50449 510.80047,296.08313 508.91022,291.22263 C 508.91022,291.22263 509.45033,284.20187 507.29006,278.53133 L 486.7679,237.48687 C 486.7679,237.48687 482.17744,228.90319 483.44088,219.42358 C 483.44088,219.42358 483.46952,211.9309 486.48858,209.16245 L 578.03766,122.45467 C 578.03766,122.45467 589.37879,111.92347 595.31947,111.92347 C 595.31947,111.92347 605.04054,109.49323 604.23043,121.10449 C 604.23043,121.10449 603.96043,158.09841 606.9307,172.13996 L 610.98113,190.77187 C 610.98113,190.77187 612.06126,202.38316 621.24229,200.76303 C 621.24229,200.76303 629.07308,200.49299 629.34315,190.77187 L 628.533,162.68893 C 628.533,162.68893 625.56265,148.37737 642.57452,147.83732 L 670.11743,146.75721 C 670.11743,146.75721 681.72868,145.13703 679.2984,160.52866 L 671.4676,194.01228 C 671.4676,194.01228 651.48542,262.59958 609.3609,309.5846 C 609.3609,309.5846 552.9249,355.21942 502.4296,366.29061 C 502.4296,366.29061 485.68779,372.23126 445.4535,373.58144 L 349.85202,375.86671 C 349.85202,375.86671 345.85264,380.74992 346.08288,385.46271 L 345.12781,394.57255 C 345.12781,394.57255 336.70589,395.4736 333.41139,395.55892 L 310.68925,395.55892 L 300.98805,390.32318 C 300.98805,390.32318 291.8071,382.2223 281.81601,384.38256 L 221.59959,384.65261 L 180.2852,386.27274 C 180.2852,386.27274 161.65323,385.46271 154.63245,402.47446 C 154.63245,402.47446 143.70623,423.70454 134.42303,477.53919 L 140.46862,483.78999 C 140.46862,483.78999 143.75175,485.72297 144.35154,493.48856 L 145.51777,552.0814 C 145.51777,552.0814 145.45152,560.71138 133.03009,576.91313 C 133.03009,576.91313 124.37277,587.95117 130.04328,610.09356 C 130.04328,610.09356 138.7007,636.31942 162.46329,654.41137 C 162.46329,654.41137 180.01513,670.61309 191.6264,674.93354 C 191.6264,674.93354 205.93792,680.33415 204.04778,693.83555 C 204.04778,693.83555 204.04778,703.82663 190.27624,703.28655 L 116.34799,695.18571 C 116.34799,695.18571 102.80682,695.4359 106.85727,682.20447 C 106.85727,682.20447 115.06333,666.1136 104.50658,653.97079 z" transform="translate(10 18)" stroke="#5a0709" stroke-width="39" stroke-linecap="round" stroke-linejoin="round" opacity="0.98"/>
    <path d="M 104.50658,653.97079 C 104.50658,653.97079 84.965034,629.56873 79.834481,596.08515 C 79.834481,596.08515 74.973956,554.23062 75.243997,532.3584 C 75.243997,532.3584 77.404225,475.92227 85.50508,450.80965 C 85.50508,450.80965 93.335916,414.35577 109.26763,387.89296 L 130.86994,353.05921 C 130.86994,353.05921 134.82662,338.97228 148.55254,344.16813 C 148.55254,344.16813 164.35349,348.1987 189.46616,348.1987 L 339.60219,344.95836 C 339.60219,344.95836 350.40331,344.41832 369.57538,337.39752 C 369.57538,337.39752 382.80679,333.6172 398.73845,333.6172 L 464.89557,330.64679 C 464.89557,330.64679 470.02615,332.80707 485.68779,322.27592 L 501.88952,308.50449 C 501.88952,308.50449 510.80047,296.08313 508.91022,291.22263 C 508.91022,291.22263 509.45033,284.20187 507.29006,278.53133 L 486.7679,237.48687 C 486.7679,237.48687 482.17744,228.90319 483.44088,219.42358 C 483.44088,219.42358 483.46952,211.9309 486.48858,209.16245 L 578.03766,122.45467 C 578.03766,122.45467 589.37879,111.92347 595.31947,111.92347 C 595.31947,111.92347 605.04054,109.49323 604.23043,121.10449 C 604.23043,121.10449 603.96043,158.09841 606.9307,172.13996 L 610.98113,190.77187 C 610.98113,190.77187 612.06126,202.38316 621.24229,200.76303 C 621.24229,200.76303 629.07308,200.49299 629.34315,190.77187 L 628.533,162.68893 C 628.533,162.68893 625.56265,148.37737 642.57452,147.83732 L 670.11743,146.75721 C 670.11743,146.75721 681.72868,145.13703 679.2984,160.52866 L 671.4676,194.01228 C 671.4676,194.01228 651.48542,262.59958 609.3609,309.5846 C 609.3609,309.5846 552.9249,355.21942 502.4296,366.29061 C 502.4296,366.29061 485.68779,372.23126 445.4535,373.58144 L 349.85202,375.86671 C 349.85202,375.86671 345.85264,380.74992 346.08288,385.46271 L 345.12781,394.57255 C 345.12781,394.57255 336.70589,395.4736 333.41139,395.55892 L 310.68925,395.55892 L 300.98805,390.32318 C 300.98805,390.32318 291.8071,382.2223 281.81601,384.38256 L 221.59959,384.65261 L 180.2852,386.27274 C 180.2852,386.27274 161.65323,385.46271 154.63245,402.47446 C 154.63245,402.47446 143.70623,423.70454 134.42303,477.53919 L 140.46862,483.78999 C 140.46862,483.78999 143.75175,485.72297 144.35154,493.48856 L 145.51777,552.0814 C 145.51777,552.0814 145.45152,560.71138 133.03009,576.91313 C 133.03009,576.91313 124.37277,587.95117 130.04328,610.09356 C 130.04328,610.09356 138.7007,636.31942 162.46329,654.41137 C 162.46329,654.41137 180.01513,670.61309 191.6264,674.93354 C 191.6264,674.93354 205.93792,680.33415 204.04778,693.83555 C 204.04778,693.83555 204.04778,703.82663 190.27624,703.28655 L 116.34799,695.18571 C 116.34799,695.18571 102.80682,695.4359 106.85727,682.20447 C 106.85727,682.20447 115.06333,666.1136 104.50658,653.97079 z" stroke="#f7f7f7" stroke-width="38" stroke-linecap="round" stroke-linejoin="round" filter="url(#shadow)"/>
    <path d="M 104.50658,653.97079 C 104.50658,653.97079 84.965034,629.56873 79.834481,596.08515 C 79.834481,596.08515 74.973956,554.23062 75.243997,532.3584 C 75.243997,532.3584 77.404225,475.92227 85.50508,450.80965 C 85.50508,450.80965 93.335916,414.35577 109.26763,387.89296 L 130.86994,353.05921 C 130.86994,353.05921 134.82662,338.97228 148.55254,344.16813 C 148.55254,344.16813 164.35349,348.1987 189.46616,348.1987 L 339.60219,344.95836 C 339.60219,344.95836 350.40331,344.41832 369.57538,337.39752 C 369.57538,337.39752 382.80679,333.6172 398.73845,333.6172 L 464.89557,330.64679 C 464.89557,330.64679 470.02615,332.80707 485.68779,322.27592 L 501.88952,308.50449 C 501.88952,308.50449 510.80047,296.08313 508.91022,291.22263 C 508.91022,291.22263 509.45033,284.20187 507.29006,278.53133 L 486.7679,237.48687 C 486.7679,237.48687 482.17744,228.90319 483.44088,219.42358 C 483.44088,219.42358 483.46952,211.9309 486.48858,209.16245 L 578.03766,122.45467 C 578.03766,122.45467 589.37879,111.92347 595.31947,111.92347 C 595.31947,111.92347 605.04054,109.49323 604.23043,121.10449 C 604.23043,121.10449 603.96043,158.09841 606.9307,172.13996 L 610.98113,190.77187 C 610.98113,190.77187 612.06126,202.38316 621.24229,200.76303 C 621.24229,200.76303 629.07308,200.49299 629.34315,190.77187 L 628.533,162.68893 C 628.533,162.68893 625.56265,148.37737 642.57452,147.83732 L 670.11743,146.75721 C 670.11743,146.75721 681.72868,145.13703 679.2984,160.52866 L 671.4676,194.01228 C 671.4676,194.01228 651.48542,262.59958 609.3609,309.5846 C 609.3609,309.5846 552.9249,355.21942 502.4296,366.29061 C 502.4296,366.29061 485.68779,372.23126 445.4535,373.58144 L 349.85202,375.86671 C 349.85202,375.86671 345.85264,380.74992 346.08288,385.46271 L 345.12781,394.57255 C 345.12781,394.57255 336.70589,395.4736 333.41139,395.55892 L 310.68925,395.55892 L 300.98805,390.32318 C 300.98805,390.32318 291.8071,382.2223 281.81601,384.38256 L 221.59959,384.65261 L 180.2852,386.27274 C 180.2852,386.27274 161.65323,385.46271 154.63245,402.47446 C 154.63245,402.47446 143.70623,423.70454 134.42303,477.53919 L 140.46862,483.78999 C 140.46862,483.78999 143.75175,485.72297 144.35154,493.48856 L 145.51777,552.0814 C 145.51777,552.0814 145.45152,560.71138 133.03009,576.91313 C 133.03009,576.91313 124.37277,587.95117 130.04328,610.09356 C 130.04328,610.09356 138.7007,636.31942 162.46329,654.41137 C 162.46329,654.41137 180.01513,670.61309 191.6264,674.93354 C 191.6264,674.93354 205.93792,680.33415 204.04778,693.83555 C 204.04778,693.83555 204.04778,703.82663 190.27624,703.28655 L 116.34799,695.18571 C 116.34799,695.18571 102.80682,695.4359 106.85727,682.20447 C 106.85727,682.20447 115.06333,666.1136 104.50658,653.97079 z" stroke="#e10600" stroke-width="28" stroke-linecap="round" stroke-linejoin="round"/>
    <path d="M 104.50658,653.97079 C 104.50658,653.97079 84.965034,629.56873 79.834481,596.08515 C 79.834481,596.08515 74.973956,554.23062 75.243997,532.3584 C 75.243997,532.3584 77.404225,475.92227 85.50508,450.80965 C 85.50508,450.80965 93.335916,414.35577 109.26763,387.89296 L 130.86994,353.05921 C 130.86994,353.05921 134.82662,338.97228 148.55254,344.16813 C 148.55254,344.16813 164.35349,348.1987 189.46616,348.1987 L 339.60219,344.95836 C 339.60219,344.95836 350.40331,344.41832 369.57538,337.39752 C 369.57538,337.39752 382.80679,333.6172 398.73845,333.6172 L 464.89557,330.64679 C 464.89557,330.64679 470.02615,332.80707 485.68779,322.27592 L 501.88952,308.50449 C 501.88952,308.50449 510.80047,296.08313 508.91022,291.22263 C 508.91022,291.22263 509.45033,284.20187 507.29006,278.53133 L 486.7679,237.48687 C 486.7679,237.48687 482.17744,228.90319 483.44088,219.42358 C 483.44088,219.42358 483.46952,211.9309 486.48858,209.16245 L 578.03766,122.45467 C 578.03766,122.45467 589.37879,111.92347 595.31947,111.92347 C 595.31947,111.92347 605.04054,109.49323 604.23043,121.10449 C 604.23043,121.10449 603.96043,158.09841 606.9307,172.13996 L 610.98113,190.77187 C 610.98113,190.77187 612.06126,202.38316 621.24229,200.76303 C 621.24229,200.76303 629.07308,200.49299 629.34315,190.77187 L 628.533,162.68893 C 628.533,162.68893 625.56265,148.37737 642.57452,147.83732 L 670.11743,146.75721 C 670.11743,146.75721 681.72868,145.13703 679.2984,160.52866 L 671.4676,194.01228 C 671.4676,194.01228 651.48542,262.59958 609.3609,309.5846 C 609.3609,309.5846 552.9249,355.21942 502.4296,366.29061 C 502.4296,366.29061 485.68779,372.23126 445.4535,373.58144 L 349.85202,375.86671 C 349.85202,375.86671 345.85264,380.74992 346.08288,385.46271 L 345.12781,394.57255 C 345.12781,394.57255 336.70589,395.4736 333.41139,395.55892 L 310.68925,395.55892 L 300.98805,390.32318 C 300.98805,390.32318 291.8071,382.2223 281.81601,384.38256 L 221.59959,384.65261 L 180.2852,386.27274 C 180.2852,386.27274 161.65323,385.46271 154.63245,402.47446 C 154.63245,402.47446 143.70623,423.70454 134.42303,477.53919 L 140.46862,483.78999 C 140.46862,483.78999 143.75175,485.72297 144.35154,493.48856 L 145.51777,552.0814 C 145.51777,552.0814 145.45152,560.71138 133.03009,576.91313 C 133.03009,576.91313 124.37277,587.95117 130.04328,610.09356 C 130.04328,610.09356 138.7007,636.31942 162.46329,654.41137 C 162.46329,654.41137 180.01513,670.61309 191.6264,674.93354 C 191.6264,674.93354 205.93792,680.33415 204.04778,693.83555 C 204.04778,693.83555 204.04778,703.82663 190.27624,703.28655 L 116.34799,695.18571 C 116.34799,695.18571 102.80682,695.4359 106.85727,682.20447 C 106.85727,682.20447 115.06333,666.1136 104.50658,653.97079 z" stroke="#ff6b6b" stroke-width="5" stroke-linecap="round" stroke-linejoin="round" stroke-dasharray="22 18" opacity="0.9"/>

    <g transform="translate(118 680) rotate(6)">
      <rect x="0" y="0" width="9" height="9" fill="#f0f6fc"/>
      <rect x="9" y="9" width="9" height="9" fill="#f0f6fc"/>
      <rect x="9" y="0" width="9" height="9" fill="#0d1117"/>
      <rect x="0" y="9" width="9" height="9" fill="#0d1117"/>
      <path d="M0 0V38" stroke="#f0f6fc" stroke-width="2"/>
    </g>

    <text x="388" y="178" class="track-label">CASINO</text>
    <text x="654" y="344" class="track-label">TUNNEL</text>
    <text x="536" y="238" class="track-label">HAIRPIN</text>
    <text x="198" y="564" class="track-label">PISCINE</text>
    <text x="254" y="706" class="track-label">RASCASSE</text>
    <text x="46" y="714" class="track-label">START</text>
  </g>

  <g>
  <path d="M54 550H910" stroke="#29313b" stroke-width="2" stroke-linecap="round"/>
  <g>
  <title>May: 13 contributions</title>
  <rect x="70" y="529" width="4" height="21" rx="2" fill="#26a641"/>
  <text x="72" y="574" text-anchor="middle" class="month">May</text>
</g>
<g>
  <title>Jun: 1 contribution</title>
  <rect x="138.33" y="542" width="4" height="8" rx="2" fill="#0e4429"/>
  <text x="140.33" y="574" text-anchor="middle" class="month">Jun</text>
</g>
<g>
  <title>Jul: 0 contributions</title>
  <rect x="206.67" y="546" width="4" height="4" rx="2" fill="#30363d"/>
  <text x="208.67" y="574" text-anchor="middle" class="month">Jul</text>
</g>
<g>
  <title>Aug: 0 contributions</title>
  <rect x="275" y="546" width="4" height="4" rx="2" fill="#30363d"/>
  <text x="277" y="574" text-anchor="middle" class="month">Aug</text>
</g>
<g>
  <title>Sep: 2 contributions</title>
  <rect x="343.33" y="541" width="4" height="9" rx="2" fill="#0e4429"/>
  <text x="345.33" y="574" text-anchor="middle" class="month">Sep</text>
</g>
<g>
  <title>Oct: 0 contributions</title>
  <rect x="411.67" y="546" width="4" height="4" rx="2" fill="#30363d"/>
  <text x="413.67" y="574" text-anchor="middle" class="month">Oct</text>
</g>
<g>
  <title>Nov: 2 contributions</title>
  <rect x="480" y="541" width="4" height="9" rx="2" fill="#0e4429"/>
  <text x="482" y="574" text-anchor="middle" class="month">Nov</text>
</g>
<g>
  <title>Dec: 0 contributions</title>
  <rect x="548.33" y="546" width="4" height="4" rx="2" fill="#30363d"/>
  <text x="550.33" y="574" text-anchor="middle" class="month">Dec</text>
</g>
<g>
  <title>Jan: 0 contributions</title>
  <rect x="616.67" y="546" width="4" height="4" rx="2" fill="#30363d"/>
  <text x="618.67" y="574" text-anchor="middle" class="month">Jan</text>
</g>
<g>
  <title>Feb: 0 contributions</title>
  <rect x="685" y="546" width="4" height="4" rx="2" fill="#30363d"/>
  <text x="687" y="574" text-anchor="middle" class="month">Feb</text>
</g>
<g>
  <title>Mar: 0 contributions</title>
  <rect x="753.33" y="546" width="4" height="4" rx="2" fill="#30363d"/>
  <text x="755.33" y="574" text-anchor="middle" class="month">Mar</text>
</g>
<g>
  <title>Apr: 0 contributions</title>
  <rect x="821.67" y="546" width="4" height="4" rx="2" fill="#30363d"/>
  <text x="823.67" y="574" text-anchor="middle" class="month">Apr</text>
</g>
<g>
  <title>May: 19 contributions</title>
  <rect x="890" y="523" width="4" height="27" rx="2" fill="#39d353"/>
  <text x="892" y="574" text-anchor="middle" class="month">May</text>
</g>
</g>
  <text x="52" y="590" class="label">37 contributions</text>
  <text x="805" y="590" text-anchor="end" class="muted">best day: 2026-05-05 / 17</text>
</svg>
