<svg width="930" height="210" viewBox="0 0 930 210" fill="none" xmlns="http://www.w3.org/2000/svg" xmlns:xlink="http://www.w3.org/1999/xlink" role="img" aria-labelledby="title desc">
  <title id="title">nariokeith F1 contribution race</title>
  <desc id="desc">An animated F1 car racing across 32 GitHub contributions.</desc>
  <style>
    .label { font: 600 14px Arial, sans-serif; fill: #f0f6fc; }
    .muted { font: 500 11px Arial, sans-serif; fill: #8b949e; }
    .line { stroke-dasharray: 14 10; animation: dash 1.1s linear infinite; }
    @keyframes dash { to { stroke-dashoffset: -24; } }
  </style>

  <rect width="930" height="210" rx="14" fill="#0d1117"/>
  <rect x="1" y="1" width="928" height="208" rx="13" stroke="#30363d"/>

  <text x="34" y="26" fill="#8b949e" font-family="Arial, sans-serif" font-size="10">May</text>
<text x="98" y="26" fill="#8b949e" font-family="Arial, sans-serif" font-size="10">Jun</text>
<text x="178" y="26" fill="#8b949e" font-family="Arial, sans-serif" font-size="10">Jul</text>
<text x="242" y="26" fill="#8b949e" font-family="Arial, sans-serif" font-size="10">Aug</text>
<text x="322" y="26" fill="#8b949e" font-family="Arial, sans-serif" font-size="10">Sep</text>
<text x="386" y="26" fill="#8b949e" font-family="Arial, sans-serif" font-size="10">Oct</text>
<text x="450" y="26" fill="#8b949e" font-family="Arial, sans-serif" font-size="10">Nov</text>
<text x="530" y="26" fill="#8b949e" font-family="Arial, sans-serif" font-size="10">Dec</text>
<text x="594" y="26" fill="#8b949e" font-family="Arial, sans-serif" font-size="10">Jan</text>
<text x="658" y="26" fill="#8b949e" font-family="Arial, sans-serif" font-size="10">Feb</text>
<text x="722" y="26" fill="#8b949e" font-family="Arial, sans-serif" font-size="10">Mar</text>
<text x="802" y="26" fill="#8b949e" font-family="Arial, sans-serif" font-size="10">Apr</text>
<text x="866" y="26" fill="#8b949e" font-family="Arial, sans-serif" font-size="10">May</text>
  <rect x="34" y="42" width="12" height="12" rx="3" fill="#161b22">
  <title>2025-05-04: 0 contributions</title>
</rect>
<rect x="34" y="58" width="12" height="12" rx="3" fill="#161b22">
  <title>2025-05-05: 0 contributions</title>
</rect>
<rect x="34" y="74" width="12" height="12" rx="3" fill="#161b22">
  <title>2025-05-06: 0 contributions</title>
</rect>
<rect x="34" y="90" width="12" height="12" rx="3" fill="#161b22">
  <title>2025-05-07: 0 contributions</title>
</rect>
<rect x="34" y="106" width="12" height="12" rx="3" fill="#161b22">
  <title>2025-05-08: 0 contributions</title>
</rect>
<rect x="34" y="122" width="12" height="12" rx="3" fill="#161b22">
  <title>2025-05-09: 0 contributions</title>
</rect>
<rect x="34" y="138" width="12" height="12" rx="3" fill="#161b22">
  <title>2025-05-10: 0 contributions</title>
</rect>
<rect x="50" y="42" width="12" height="12" rx="3" fill="#161b22">
  <title>2025-05-11: 0 contributions</title>
</rect>
<rect x="50" y="58" width="12" height="12" rx="3" fill="#161b22">
  <title>2025-05-12: 0 contributions</title>
</rect>
<rect x="50" y="74" width="12" height="12" rx="3" fill="#161b22">
  <title>2025-05-13: 0 contributions</title>
</rect>
<rect x="50" y="90" width="12" height="12" rx="3" fill="#161b22">
  <title>2025-05-14: 0 contributions</title>
</rect>
<rect x="50" y="106" width="12" height="12" rx="3" fill="#161b22">
  <title>2025-05-15: 0 contributions</title>
</rect>
<rect x="50" y="122" width="12" height="12" rx="3" fill="#161b22">
  <title>2025-05-16: 0 contributions</title>
</rect>
<rect x="50" y="138" width="12" height="12" rx="3" fill="#006d32">
  <title>2025-05-17: 6 contributions</title>
</rect>
<rect x="66" y="42" width="12" height="12" rx="3" fill="#161b22">
  <title>2025-05-18: 0 contributions</title>
</rect>
<rect x="66" y="58" width="12" height="12" rx="3" fill="#161b22">
  <title>2025-05-19: 0 contributions</title>
</rect>
<rect x="66" y="74" width="12" height="12" rx="3" fill="#0e4429">
  <title>2025-05-20: 2 contributions</title>
</rect>
<rect x="66" y="90" width="12" height="12" rx="3" fill="#006d32">
  <title>2025-05-21: 5 contributions</title>
</rect>
<rect x="66" y="106" width="12" height="12" rx="3" fill="#161b22">
  <title>2025-05-22: 0 contributions</title>
</rect>
<rect x="66" y="122" width="12" height="12" rx="3" fill="#161b22">
  <title>2025-05-23: 0 contributions</title>
</rect>
<rect x="66" y="138" width="12" height="12" rx="3" fill="#161b22">
  <title>2025-05-24: 0 contributions</title>
</rect>
<rect x="82" y="42" width="12" height="12" rx="3" fill="#161b22">
  <title>2025-05-25: 0 contributions</title>
</rect>
<rect x="82" y="58" width="12" height="12" rx="3" fill="#161b22">
  <title>2025-05-26: 0 contributions</title>
</rect>
<rect x="82" y="74" width="12" height="12" rx="3" fill="#161b22">
  <title>2025-05-27: 0 contributions</title>
</rect>
<rect x="82" y="90" width="12" height="12" rx="3" fill="#161b22">
  <title>2025-05-28: 0 contributions</title>
</rect>
<rect x="82" y="106" width="12" height="12" rx="3" fill="#161b22">
  <title>2025-05-29: 0 contributions</title>
</rect>
<rect x="82" y="122" width="12" height="12" rx="3" fill="#161b22">
  <title>2025-05-30: 0 contributions</title>
</rect>
<rect x="82" y="138" width="12" height="12" rx="3" fill="#161b22">
  <title>2025-05-31: 0 contributions</title>
</rect>
<rect x="98" y="42" width="12" height="12" rx="3" fill="#161b22">
  <title>2025-06-01: 0 contributions</title>
</rect>
<rect x="98" y="58" width="12" height="12" rx="3" fill="#161b22">
  <title>2025-06-02: 0 contributions</title>
</rect>
<rect x="98" y="74" width="12" height="12" rx="3" fill="#161b22">
  <title>2025-06-03: 0 contributions</title>
</rect>
<rect x="98" y="90" width="12" height="12" rx="3" fill="#0e4429">
  <title>2025-06-04: 1 contribution</title>
</rect>
<rect x="98" y="106" width="12" height="12" rx="3" fill="#161b22">
  <title>2025-06-05: 0 contributions</title>
</rect>
<rect x="98" y="122" width="12" height="12" rx="3" fill="#161b22">
  <title>2025-06-06: 0 contributions</title>
</rect>
<rect x="98" y="138" width="12" height="12" rx="3" fill="#161b22">
  <title>2025-06-07: 0 contributions</title>
</rect>
<rect x="114" y="42" width="12" height="12" rx="3" fill="#161b22">
  <title>2025-06-08: 0 contributions</title>
</rect>
<rect x="114" y="58" width="12" height="12" rx="3" fill="#161b22">
  <title>2025-06-09: 0 contributions</title>
</rect>
<rect x="114" y="74" width="12" height="12" rx="3" fill="#161b22">
  <title>2025-06-10: 0 contributions</title>
</rect>
<rect x="114" y="90" width="12" height="12" rx="3" fill="#161b22">
  <title>2025-06-11: 0 contributions</title>
</rect>
<rect x="114" y="106" width="12" height="12" rx="3" fill="#161b22">
  <title>2025-06-12: 0 contributions</title>
</rect>
<rect x="114" y="122" width="12" height="12" rx="3" fill="#161b22">
  <title>2025-06-13: 0 contributions</title>
</rect>
<rect x="114" y="138" width="12" height="12" rx="3" fill="#161b22">
  <title>2025-06-14: 0 contributions</title>
</rect>
<rect x="130" y="42" width="12" height="12" rx="3" fill="#161b22">
  <title>2025-06-15: 0 contributions</title>
</rect>
<rect x="130" y="58" width="12" height="12" rx="3" fill="#161b22">
  <title>2025-06-16: 0 contributions</title>
</rect>
<rect x="130" y="74" width="12" height="12" rx="3" fill="#161b22">
  <title>2025-06-17: 0 contributions</title>
</rect>
<rect x="130" y="90" width="12" height="12" rx="3" fill="#161b22">
  <title>2025-06-18: 0 contributions</title>
</rect>
<rect x="130" y="106" width="12" height="12" rx="3" fill="#161b22">
  <title>2025-06-19: 0 contributions</title>
</rect>
<rect x="130" y="122" width="12" height="12" rx="3" fill="#161b22">
  <title>2025-06-20: 0 contributions</title>
</rect>
<rect x="130" y="138" width="12" height="12" rx="3" fill="#161b22">
  <title>2025-06-21: 0 contributions</title>
</rect>
<rect x="146" y="42" width="12" height="12" rx="3" fill="#161b22">
  <title>2025-06-22: 0 contributions</title>
</rect>
<rect x="146" y="58" width="12" height="12" rx="3" fill="#161b22">
  <title>2025-06-23: 0 contributions</title>
</rect>
<rect x="146" y="74" width="12" height="12" rx="3" fill="#161b22">
  <title>2025-06-24: 0 contributions</title>
</rect>
<rect x="146" y="90" width="12" height="12" rx="3" fill="#161b22">
  <title>2025-06-25: 0 contributions</title>
</rect>
<rect x="146" y="106" width="12" height="12" rx="3" fill="#161b22">
  <title>2025-06-26: 0 contributions</title>
</rect>
<rect x="146" y="122" width="12" height="12" rx="3" fill="#161b22">
  <title>2025-06-27: 0 contributions</title>
</rect>
<rect x="146" y="138" width="12" height="12" rx="3" fill="#161b22">
  <title>2025-06-28: 0 contributions</title>
</rect>
<rect x="162" y="42" width="12" height="12" rx="3" fill="#161b22">
  <title>2025-06-29: 0 contributions</title>
</rect>
<rect x="162" y="58" width="12" height="12" rx="3" fill="#161b22">
  <title>2025-06-30: 0 contributions</title>
</rect>
<rect x="162" y="74" width="12" height="12" rx="3" fill="#161b22">
  <title>2025-07-01: 0 contributions</title>
</rect>
<rect x="162" y="90" width="12" height="12" rx="3" fill="#161b22">
  <title>2025-07-02: 0 contributions</title>
</rect>
<rect x="162" y="106" width="12" height="12" rx="3" fill="#161b22">
  <title>2025-07-03: 0 contributions</title>
</rect>
<rect x="162" y="122" width="12" height="12" rx="3" fill="#161b22">
  <title>2025-07-04: 0 contributions</title>
</rect>
<rect x="162" y="138" width="12" height="12" rx="3" fill="#161b22">
  <title>2025-07-05: 0 contributions</title>
</rect>
<rect x="178" y="42" width="12" height="12" rx="3" fill="#161b22">
  <title>2025-07-06: 0 contributions</title>
</rect>
<rect x="178" y="58" width="12" height="12" rx="3" fill="#161b22">
  <title>2025-07-07: 0 contributions</title>
</rect>
<rect x="178" y="74" width="12" height="12" rx="3" fill="#161b22">
  <title>2025-07-08: 0 contributions</title>
</rect>
<rect x="178" y="90" width="12" height="12" rx="3" fill="#161b22">
  <title>2025-07-09: 0 contributions</title>
</rect>
<rect x="178" y="106" width="12" height="12" rx="3" fill="#161b22">
  <title>2025-07-10: 0 contributions</title>
</rect>
<rect x="178" y="122" width="12" height="12" rx="3" fill="#161b22">
  <title>2025-07-11: 0 contributions</title>
</rect>
<rect x="178" y="138" width="12" height="12" rx="3" fill="#161b22">
  <title>2025-07-12: 0 contributions</title>
</rect>
<rect x="194" y="42" width="12" height="12" rx="3" fill="#161b22">
  <title>2025-07-13: 0 contributions</title>
</rect>
<rect x="194" y="58" width="12" height="12" rx="3" fill="#161b22">
  <title>2025-07-14: 0 contributions</title>
</rect>
<rect x="194" y="74" width="12" height="12" rx="3" fill="#161b22">
  <title>2025-07-15: 0 contributions</title>
</rect>
<rect x="194" y="90" width="12" height="12" rx="3" fill="#161b22">
  <title>2025-07-16: 0 contributions</title>
</rect>
<rect x="194" y="106" width="12" height="12" rx="3" fill="#161b22">
  <title>2025-07-17: 0 contributions</title>
</rect>
<rect x="194" y="122" width="12" height="12" rx="3" fill="#161b22">
  <title>2025-07-18: 0 contributions</title>
</rect>
<rect x="194" y="138" width="12" height="12" rx="3" fill="#161b22">
  <title>2025-07-19: 0 contributions</title>
</rect>
<rect x="210" y="42" width="12" height="12" rx="3" fill="#161b22">
  <title>2025-07-20: 0 contributions</title>
</rect>
<rect x="210" y="58" width="12" height="12" rx="3" fill="#161b22">
  <title>2025-07-21: 0 contributions</title>
</rect>
<rect x="210" y="74" width="12" height="12" rx="3" fill="#161b22">
  <title>2025-07-22: 0 contributions</title>
</rect>
<rect x="210" y="90" width="12" height="12" rx="3" fill="#161b22">
  <title>2025-07-23: 0 contributions</title>
</rect>
<rect x="210" y="106" width="12" height="12" rx="3" fill="#161b22">
  <title>2025-07-24: 0 contributions</title>
</rect>
<rect x="210" y="122" width="12" height="12" rx="3" fill="#161b22">
  <title>2025-07-25: 0 contributions</title>
</rect>
<rect x="210" y="138" width="12" height="12" rx="3" fill="#161b22">
  <title>2025-07-26: 0 contributions</title>
</rect>
<rect x="226" y="42" width="12" height="12" rx="3" fill="#161b22">
  <title>2025-07-27: 0 contributions</title>
</rect>
<rect x="226" y="58" width="12" height="12" rx="3" fill="#161b22">
  <title>2025-07-28: 0 contributions</title>
</rect>
<rect x="226" y="74" width="12" height="12" rx="3" fill="#161b22">
  <title>2025-07-29: 0 contributions</title>
</rect>
<rect x="226" y="90" width="12" height="12" rx="3" fill="#161b22">
  <title>2025-07-30: 0 contributions</title>
</rect>
<rect x="226" y="106" width="12" height="12" rx="3" fill="#161b22">
  <title>2025-07-31: 0 contributions</title>
</rect>
<rect x="226" y="122" width="12" height="12" rx="3" fill="#161b22">
  <title>2025-08-01: 0 contributions</title>
</rect>
<rect x="226" y="138" width="12" height="12" rx="3" fill="#161b22">
  <title>2025-08-02: 0 contributions</title>
</rect>
<rect x="242" y="42" width="12" height="12" rx="3" fill="#161b22">
  <title>2025-08-03: 0 contributions</title>
</rect>
<rect x="242" y="58" width="12" height="12" rx="3" fill="#161b22">
  <title>2025-08-04: 0 contributions</title>
</rect>
<rect x="242" y="74" width="12" height="12" rx="3" fill="#161b22">
  <title>2025-08-05: 0 contributions</title>
</rect>
<rect x="242" y="90" width="12" height="12" rx="3" fill="#161b22">
  <title>2025-08-06: 0 contributions</title>
</rect>
<rect x="242" y="106" width="12" height="12" rx="3" fill="#161b22">
  <title>2025-08-07: 0 contributions</title>
</rect>
<rect x="242" y="122" width="12" height="12" rx="3" fill="#161b22">
  <title>2025-08-08: 0 contributions</title>
</rect>
<rect x="242" y="138" width="12" height="12" rx="3" fill="#161b22">
  <title>2025-08-09: 0 contributions</title>
</rect>
<rect x="258" y="42" width="12" height="12" rx="3" fill="#161b22">
  <title>2025-08-10: 0 contributions</title>
</rect>
<rect x="258" y="58" width="12" height="12" rx="3" fill="#161b22">
  <title>2025-08-11: 0 contributions</title>
</rect>
<rect x="258" y="74" width="12" height="12" rx="3" fill="#161b22">
  <title>2025-08-12: 0 contributions</title>
</rect>
<rect x="258" y="90" width="12" height="12" rx="3" fill="#161b22">
  <title>2025-08-13: 0 contributions</title>
</rect>
<rect x="258" y="106" width="12" height="12" rx="3" fill="#161b22">
  <title>2025-08-14: 0 contributions</title>
</rect>
<rect x="258" y="122" width="12" height="12" rx="3" fill="#161b22">
  <title>2025-08-15: 0 contributions</title>
</rect>
<rect x="258" y="138" width="12" height="12" rx="3" fill="#161b22">
  <title>2025-08-16: 0 contributions</title>
</rect>
<rect x="274" y="42" width="12" height="12" rx="3" fill="#161b22">
  <title>2025-08-17: 0 contributions</title>
</rect>
<rect x="274" y="58" width="12" height="12" rx="3" fill="#161b22">
  <title>2025-08-18: 0 contributions</title>
</rect>
<rect x="274" y="74" width="12" height="12" rx="3" fill="#161b22">
  <title>2025-08-19: 0 contributions</title>
</rect>
<rect x="274" y="90" width="12" height="12" rx="3" fill="#161b22">
  <title>2025-08-20: 0 contributions</title>
</rect>
<rect x="274" y="106" width="12" height="12" rx="3" fill="#161b22">
  <title>2025-08-21: 0 contributions</title>
</rect>
<rect x="274" y="122" width="12" height="12" rx="3" fill="#161b22">
  <title>2025-08-22: 0 contributions</title>
</rect>
<rect x="274" y="138" width="12" height="12" rx="3" fill="#161b22">
  <title>2025-08-23: 0 contributions</title>
</rect>
<rect x="290" y="42" width="12" height="12" rx="3" fill="#161b22">
  <title>2025-08-24: 0 contributions</title>
</rect>
<rect x="290" y="58" width="12" height="12" rx="3" fill="#161b22">
  <title>2025-08-25: 0 contributions</title>
</rect>
<rect x="290" y="74" width="12" height="12" rx="3" fill="#161b22">
  <title>2025-08-26: 0 contributions</title>
</rect>
<rect x="290" y="90" width="12" height="12" rx="3" fill="#161b22">
  <title>2025-08-27: 0 contributions</title>
</rect>
<rect x="290" y="106" width="12" height="12" rx="3" fill="#161b22">
  <title>2025-08-28: 0 contributions</title>
</rect>
<rect x="290" y="122" width="12" height="12" rx="3" fill="#161b22">
  <title>2025-08-29: 0 contributions</title>
</rect>
<rect x="290" y="138" width="12" height="12" rx="3" fill="#161b22">
  <title>2025-08-30: 0 contributions</title>
</rect>
<rect x="306" y="42" width="12" height="12" rx="3" fill="#161b22">
  <title>2025-08-31: 0 contributions</title>
</rect>
<rect x="306" y="58" width="12" height="12" rx="3" fill="#161b22">
  <title>2025-09-01: 0 contributions</title>
</rect>
<rect x="306" y="74" width="12" height="12" rx="3" fill="#161b22">
  <title>2025-09-02: 0 contributions</title>
</rect>
<rect x="306" y="90" width="12" height="12" rx="3" fill="#161b22">
  <title>2025-09-03: 0 contributions</title>
</rect>
<rect x="306" y="106" width="12" height="12" rx="3" fill="#161b22">
  <title>2025-09-04: 0 contributions</title>
</rect>
<rect x="306" y="122" width="12" height="12" rx="3" fill="#161b22">
  <title>2025-09-05: 0 contributions</title>
</rect>
<rect x="306" y="138" width="12" height="12" rx="3" fill="#0e4429">
  <title>2025-09-06: 2 contributions</title>
</rect>
<rect x="322" y="42" width="12" height="12" rx="3" fill="#161b22">
  <title>2025-09-07: 0 contributions</title>
</rect>
<rect x="322" y="58" width="12" height="12" rx="3" fill="#161b22">
  <title>2025-09-08: 0 contributions</title>
</rect>
<rect x="322" y="74" width="12" height="12" rx="3" fill="#161b22">
  <title>2025-09-09: 0 contributions</title>
</rect>
<rect x="322" y="90" width="12" height="12" rx="3" fill="#161b22">
  <title>2025-09-10: 0 contributions</title>
</rect>
<rect x="322" y="106" width="12" height="12" rx="3" fill="#161b22">
  <title>2025-09-11: 0 contributions</title>
</rect>
<rect x="322" y="122" width="12" height="12" rx="3" fill="#161b22">
  <title>2025-09-12: 0 contributions</title>
</rect>
<rect x="322" y="138" width="12" height="12" rx="3" fill="#161b22">
  <title>2025-09-13: 0 contributions</title>
</rect>
<rect x="338" y="42" width="12" height="12" rx="3" fill="#161b22">
  <title>2025-09-14: 0 contributions</title>
</rect>
<rect x="338" y="58" width="12" height="12" rx="3" fill="#161b22">
  <title>2025-09-15: 0 contributions</title>
</rect>
<rect x="338" y="74" width="12" height="12" rx="3" fill="#161b22">
  <title>2025-09-16: 0 contributions</title>
</rect>
<rect x="338" y="90" width="12" height="12" rx="3" fill="#161b22">
  <title>2025-09-17: 0 contributions</title>
</rect>
<rect x="338" y="106" width="12" height="12" rx="3" fill="#161b22">
  <title>2025-09-18: 0 contributions</title>
</rect>
<rect x="338" y="122" width="12" height="12" rx="3" fill="#161b22">
  <title>2025-09-19: 0 contributions</title>
</rect>
<rect x="338" y="138" width="12" height="12" rx="3" fill="#161b22">
  <title>2025-09-20: 0 contributions</title>
</rect>
<rect x="354" y="42" width="12" height="12" rx="3" fill="#161b22">
  <title>2025-09-21: 0 contributions</title>
</rect>
<rect x="354" y="58" width="12" height="12" rx="3" fill="#161b22">
  <title>2025-09-22: 0 contributions</title>
</rect>
<rect x="354" y="74" width="12" height="12" rx="3" fill="#161b22">
  <title>2025-09-23: 0 contributions</title>
</rect>
<rect x="354" y="90" width="12" height="12" rx="3" fill="#161b22">
  <title>2025-09-24: 0 contributions</title>
</rect>
<rect x="354" y="106" width="12" height="12" rx="3" fill="#161b22">
  <title>2025-09-25: 0 contributions</title>
</rect>
<rect x="354" y="122" width="12" height="12" rx="3" fill="#161b22">
  <title>2025-09-26: 0 contributions</title>
</rect>
<rect x="354" y="138" width="12" height="12" rx="3" fill="#161b22">
  <title>2025-09-27: 0 contributions</title>
</rect>
<rect x="370" y="42" width="12" height="12" rx="3" fill="#161b22">
  <title>2025-09-28: 0 contributions</title>
</rect>
<rect x="370" y="58" width="12" height="12" rx="3" fill="#161b22">
  <title>2025-09-29: 0 contributions</title>
</rect>
<rect x="370" y="74" width="12" height="12" rx="3" fill="#161b22">
  <title>2025-09-30: 0 contributions</title>
</rect>
<rect x="370" y="90" width="12" height="12" rx="3" fill="#161b22">
  <title>2025-10-01: 0 contributions</title>
</rect>
<rect x="370" y="106" width="12" height="12" rx="3" fill="#161b22">
  <title>2025-10-02: 0 contributions</title>
</rect>
<rect x="370" y="122" width="12" height="12" rx="3" fill="#161b22">
  <title>2025-10-03: 0 contributions</title>
</rect>
<rect x="370" y="138" width="12" height="12" rx="3" fill="#161b22">
  <title>2025-10-04: 0 contributions</title>
</rect>
<rect x="386" y="42" width="12" height="12" rx="3" fill="#161b22">
  <title>2025-10-05: 0 contributions</title>
</rect>
<rect x="386" y="58" width="12" height="12" rx="3" fill="#161b22">
  <title>2025-10-06: 0 contributions</title>
</rect>
<rect x="386" y="74" width="12" height="12" rx="3" fill="#161b22">
  <title>2025-10-07: 0 contributions</title>
</rect>
<rect x="386" y="90" width="12" height="12" rx="3" fill="#161b22">
  <title>2025-10-08: 0 contributions</title>
</rect>
<rect x="386" y="106" width="12" height="12" rx="3" fill="#161b22">
  <title>2025-10-09: 0 contributions</title>
</rect>
<rect x="386" y="122" width="12" height="12" rx="3" fill="#161b22">
  <title>2025-10-10: 0 contributions</title>
</rect>
<rect x="386" y="138" width="12" height="12" rx="3" fill="#161b22">
  <title>2025-10-11: 0 contributions</title>
</rect>
<rect x="402" y="42" width="12" height="12" rx="3" fill="#161b22">
  <title>2025-10-12: 0 contributions</title>
</rect>
<rect x="402" y="58" width="12" height="12" rx="3" fill="#161b22">
  <title>2025-10-13: 0 contributions</title>
</rect>
<rect x="402" y="74" width="12" height="12" rx="3" fill="#161b22">
  <title>2025-10-14: 0 contributions</title>
</rect>
<rect x="402" y="90" width="12" height="12" rx="3" fill="#161b22">
  <title>2025-10-15: 0 contributions</title>
</rect>
<rect x="402" y="106" width="12" height="12" rx="3" fill="#161b22">
  <title>2025-10-16: 0 contributions</title>
</rect>
<rect x="402" y="122" width="12" height="12" rx="3" fill="#161b22">
  <title>2025-10-17: 0 contributions</title>
</rect>
<rect x="402" y="138" width="12" height="12" rx="3" fill="#161b22">
  <title>2025-10-18: 0 contributions</title>
</rect>
<rect x="418" y="42" width="12" height="12" rx="3" fill="#161b22">
  <title>2025-10-19: 0 contributions</title>
</rect>
<rect x="418" y="58" width="12" height="12" rx="3" fill="#161b22">
  <title>2025-10-20: 0 contributions</title>
</rect>
<rect x="418" y="74" width="12" height="12" rx="3" fill="#161b22">
  <title>2025-10-21: 0 contributions</title>
</rect>
<rect x="418" y="90" width="12" height="12" rx="3" fill="#161b22">
  <title>2025-10-22: 0 contributions</title>
</rect>
<rect x="418" y="106" width="12" height="12" rx="3" fill="#161b22">
  <title>2025-10-23: 0 contributions</title>
</rect>
<rect x="418" y="122" width="12" height="12" rx="3" fill="#161b22">
  <title>2025-10-24: 0 contributions</title>
</rect>
<rect x="418" y="138" width="12" height="12" rx="3" fill="#161b22">
  <title>2025-10-25: 0 contributions</title>
</rect>
<rect x="434" y="42" width="12" height="12" rx="3" fill="#161b22">
  <title>2025-10-26: 0 contributions</title>
</rect>
<rect x="434" y="58" width="12" height="12" rx="3" fill="#161b22">
  <title>2025-10-27: 0 contributions</title>
</rect>
<rect x="434" y="74" width="12" height="12" rx="3" fill="#161b22">
  <title>2025-10-28: 0 contributions</title>
</rect>
<rect x="434" y="90" width="12" height="12" rx="3" fill="#161b22">
  <title>2025-10-29: 0 contributions</title>
</rect>
<rect x="434" y="106" width="12" height="12" rx="3" fill="#161b22">
  <title>2025-10-30: 0 contributions</title>
</rect>
<rect x="434" y="122" width="12" height="12" rx="3" fill="#161b22">
  <title>2025-10-31: 0 contributions</title>
</rect>
<rect x="434" y="138" width="12" height="12" rx="3" fill="#161b22">
  <title>2025-11-01: 0 contributions</title>
</rect>
<rect x="450" y="42" width="12" height="12" rx="3" fill="#161b22">
  <title>2025-11-02: 0 contributions</title>
</rect>
<rect x="450" y="58" width="12" height="12" rx="3" fill="#161b22">
  <title>2025-11-03: 0 contributions</title>
</rect>
<rect x="450" y="74" width="12" height="12" rx="3" fill="#161b22">
  <title>2025-11-04: 0 contributions</title>
</rect>
<rect x="450" y="90" width="12" height="12" rx="3" fill="#161b22">
  <title>2025-11-05: 0 contributions</title>
</rect>
<rect x="450" y="106" width="12" height="12" rx="3" fill="#161b22">
  <title>2025-11-06: 0 contributions</title>
</rect>
<rect x="450" y="122" width="12" height="12" rx="3" fill="#161b22">
  <title>2025-11-07: 0 contributions</title>
</rect>
<rect x="450" y="138" width="12" height="12" rx="3" fill="#161b22">
  <title>2025-11-08: 0 contributions</title>
</rect>
<rect x="466" y="42" width="12" height="12" rx="3" fill="#161b22">
  <title>2025-11-09: 0 contributions</title>
</rect>
<rect x="466" y="58" width="12" height="12" rx="3" fill="#161b22">
  <title>2025-11-10: 0 contributions</title>
</rect>
<rect x="466" y="74" width="12" height="12" rx="3" fill="#161b22">
  <title>2025-11-11: 0 contributions</title>
</rect>
<rect x="466" y="90" width="12" height="12" rx="3" fill="#161b22">
  <title>2025-11-12: 0 contributions</title>
</rect>
<rect x="466" y="106" width="12" height="12" rx="3" fill="#161b22">
  <title>2025-11-13: 0 contributions</title>
</rect>
<rect x="466" y="122" width="12" height="12" rx="3" fill="#161b22">
  <title>2025-11-14: 0 contributions</title>
</rect>
<rect x="466" y="138" width="12" height="12" rx="3" fill="#0e4429">
  <title>2025-11-15: 2 contributions</title>
</rect>
<rect x="482" y="42" width="12" height="12" rx="3" fill="#161b22">
  <title>2025-11-16: 0 contributions</title>
</rect>
<rect x="482" y="58" width="12" height="12" rx="3" fill="#161b22">
  <title>2025-11-17: 0 contributions</title>
</rect>
<rect x="482" y="74" width="12" height="12" rx="3" fill="#161b22">
  <title>2025-11-18: 0 contributions</title>
</rect>
<rect x="482" y="90" width="12" height="12" rx="3" fill="#161b22">
  <title>2025-11-19: 0 contributions</title>
</rect>
<rect x="482" y="106" width="12" height="12" rx="3" fill="#161b22">
  <title>2025-11-20: 0 contributions</title>
</rect>
<rect x="482" y="122" width="12" height="12" rx="3" fill="#161b22">
  <title>2025-11-21: 0 contributions</title>
</rect>
<rect x="482" y="138" width="12" height="12" rx="3" fill="#161b22">
  <title>2025-11-22: 0 contributions</title>
</rect>
<rect x="498" y="42" width="12" height="12" rx="3" fill="#161b22">
  <title>2025-11-23: 0 contributions</title>
</rect>
<rect x="498" y="58" width="12" height="12" rx="3" fill="#161b22">
  <title>2025-11-24: 0 contributions</title>
</rect>
<rect x="498" y="74" width="12" height="12" rx="3" fill="#161b22">
  <title>2025-11-25: 0 contributions</title>
</rect>
<rect x="498" y="90" width="12" height="12" rx="3" fill="#161b22">
  <title>2025-11-26: 0 contributions</title>
</rect>
<rect x="498" y="106" width="12" height="12" rx="3" fill="#161b22">
  <title>2025-11-27: 0 contributions</title>
</rect>
<rect x="498" y="122" width="12" height="12" rx="3" fill="#161b22">
  <title>2025-11-28: 0 contributions</title>
</rect>
<rect x="498" y="138" width="12" height="12" rx="3" fill="#161b22">
  <title>2025-11-29: 0 contributions</title>
</rect>
<rect x="514" y="42" width="12" height="12" rx="3" fill="#161b22">
  <title>2025-11-30: 0 contributions</title>
</rect>
<rect x="514" y="58" width="12" height="12" rx="3" fill="#161b22">
  <title>2025-12-01: 0 contributions</title>
</rect>
<rect x="514" y="74" width="12" height="12" rx="3" fill="#161b22">
  <title>2025-12-02: 0 contributions</title>
</rect>
<rect x="514" y="90" width="12" height="12" rx="3" fill="#161b22">
  <title>2025-12-03: 0 contributions</title>
</rect>
<rect x="514" y="106" width="12" height="12" rx="3" fill="#161b22">
  <title>2025-12-04: 0 contributions</title>
</rect>
<rect x="514" y="122" width="12" height="12" rx="3" fill="#161b22">
  <title>2025-12-05: 0 contributions</title>
</rect>
<rect x="514" y="138" width="12" height="12" rx="3" fill="#161b22">
  <title>2025-12-06: 0 contributions</title>
</rect>
<rect x="530" y="42" width="12" height="12" rx="3" fill="#161b22">
  <title>2025-12-07: 0 contributions</title>
</rect>
<rect x="530" y="58" width="12" height="12" rx="3" fill="#161b22">
  <title>2025-12-08: 0 contributions</title>
</rect>
<rect x="530" y="74" width="12" height="12" rx="3" fill="#161b22">
  <title>2025-12-09: 0 contributions</title>
</rect>
<rect x="530" y="90" width="12" height="12" rx="3" fill="#161b22">
  <title>2025-12-10: 0 contributions</title>
</rect>
<rect x="530" y="106" width="12" height="12" rx="3" fill="#161b22">
  <title>2025-12-11: 0 contributions</title>
</rect>
<rect x="530" y="122" width="12" height="12" rx="3" fill="#161b22">
  <title>2025-12-12: 0 contributions</title>
</rect>
<rect x="530" y="138" width="12" height="12" rx="3" fill="#161b22">
  <title>2025-12-13: 0 contributions</title>
</rect>
<rect x="546" y="42" width="12" height="12" rx="3" fill="#161b22">
  <title>2025-12-14: 0 contributions</title>
</rect>
<rect x="546" y="58" width="12" height="12" rx="3" fill="#161b22">
  <title>2025-12-15: 0 contributions</title>
</rect>
<rect x="546" y="74" width="12" height="12" rx="3" fill="#161b22">
  <title>2025-12-16: 0 contributions</title>
</rect>
<rect x="546" y="90" width="12" height="12" rx="3" fill="#161b22">
  <title>2025-12-17: 0 contributions</title>
</rect>
<rect x="546" y="106" width="12" height="12" rx="3" fill="#161b22">
  <title>2025-12-18: 0 contributions</title>
</rect>
<rect x="546" y="122" width="12" height="12" rx="3" fill="#161b22">
  <title>2025-12-19: 0 contributions</title>
</rect>
<rect x="546" y="138" width="12" height="12" rx="3" fill="#161b22">
  <title>2025-12-20: 0 contributions</title>
</rect>
<rect x="562" y="42" width="12" height="12" rx="3" fill="#161b22">
  <title>2025-12-21: 0 contributions</title>
</rect>
<rect x="562" y="58" width="12" height="12" rx="3" fill="#161b22">
  <title>2025-12-22: 0 contributions</title>
</rect>
<rect x="562" y="74" width="12" height="12" rx="3" fill="#161b22">
  <title>2025-12-23: 0 contributions</title>
</rect>
<rect x="562" y="90" width="12" height="12" rx="3" fill="#161b22">
  <title>2025-12-24: 0 contributions</title>
</rect>
<rect x="562" y="106" width="12" height="12" rx="3" fill="#161b22">
  <title>2025-12-25: 0 contributions</title>
</rect>
<rect x="562" y="122" width="12" height="12" rx="3" fill="#161b22">
  <title>2025-12-26: 0 contributions</title>
</rect>
<rect x="562" y="138" width="12" height="12" rx="3" fill="#161b22">
  <title>2025-12-27: 0 contributions</title>
</rect>
<rect x="578" y="42" width="12" height="12" rx="3" fill="#161b22">
  <title>2025-12-28: 0 contributions</title>
</rect>
<rect x="578" y="58" width="12" height="12" rx="3" fill="#161b22">
  <title>2025-12-29: 0 contributions</title>
</rect>
<rect x="578" y="74" width="12" height="12" rx="3" fill="#161b22">
  <title>2025-12-30: 0 contributions</title>
</rect>
<rect x="578" y="90" width="12" height="12" rx="3" fill="#161b22">
  <title>2025-12-31: 0 contributions</title>
</rect>
<rect x="578" y="106" width="12" height="12" rx="3" fill="#161b22">
  <title>2026-01-01: 0 contributions</title>
</rect>
<rect x="578" y="122" width="12" height="12" rx="3" fill="#161b22">
  <title>2026-01-02: 0 contributions</title>
</rect>
<rect x="578" y="138" width="12" height="12" rx="3" fill="#161b22">
  <title>2026-01-03: 0 contributions</title>
</rect>
<rect x="594" y="42" width="12" height="12" rx="3" fill="#161b22">
  <title>2026-01-04: 0 contributions</title>
</rect>
<rect x="594" y="58" width="12" height="12" rx="3" fill="#161b22">
  <title>2026-01-05: 0 contributions</title>
</rect>
<rect x="594" y="74" width="12" height="12" rx="3" fill="#161b22">
  <title>2026-01-06: 0 contributions</title>
</rect>
<rect x="594" y="90" width="12" height="12" rx="3" fill="#161b22">
  <title>2026-01-07: 0 contributions</title>
</rect>
<rect x="594" y="106" width="12" height="12" rx="3" fill="#161b22">
  <title>2026-01-08: 0 contributions</title>
</rect>
<rect x="594" y="122" width="12" height="12" rx="3" fill="#161b22">
  <title>2026-01-09: 0 contributions</title>
</rect>
<rect x="594" y="138" width="12" height="12" rx="3" fill="#161b22">
  <title>2026-01-10: 0 contributions</title>
</rect>
<rect x="610" y="42" width="12" height="12" rx="3" fill="#161b22">
  <title>2026-01-11: 0 contributions</title>
</rect>
<rect x="610" y="58" width="12" height="12" rx="3" fill="#161b22">
  <title>2026-01-12: 0 contributions</title>
</rect>
<rect x="610" y="74" width="12" height="12" rx="3" fill="#161b22">
  <title>2026-01-13: 0 contributions</title>
</rect>
<rect x="610" y="90" width="12" height="12" rx="3" fill="#161b22">
  <title>2026-01-14: 0 contributions</title>
</rect>
<rect x="610" y="106" width="12" height="12" rx="3" fill="#161b22">
  <title>2026-01-15: 0 contributions</title>
</rect>
<rect x="610" y="122" width="12" height="12" rx="3" fill="#161b22">
  <title>2026-01-16: 0 contributions</title>
</rect>
<rect x="610" y="138" width="12" height="12" rx="3" fill="#161b22">
  <title>2026-01-17: 0 contributions</title>
</rect>
<rect x="626" y="42" width="12" height="12" rx="3" fill="#161b22">
  <title>2026-01-18: 0 contributions</title>
</rect>
<rect x="626" y="58" width="12" height="12" rx="3" fill="#161b22">
  <title>2026-01-19: 0 contributions</title>
</rect>
<rect x="626" y="74" width="12" height="12" rx="3" fill="#161b22">
  <title>2026-01-20: 0 contributions</title>
</rect>
<rect x="626" y="90" width="12" height="12" rx="3" fill="#161b22">
  <title>2026-01-21: 0 contributions</title>
</rect>
<rect x="626" y="106" width="12" height="12" rx="3" fill="#161b22">
  <title>2026-01-22: 0 contributions</title>
</rect>
<rect x="626" y="122" width="12" height="12" rx="3" fill="#161b22">
  <title>2026-01-23: 0 contributions</title>
</rect>
<rect x="626" y="138" width="12" height="12" rx="3" fill="#161b22">
  <title>2026-01-24: 0 contributions</title>
</rect>
<rect x="642" y="42" width="12" height="12" rx="3" fill="#161b22">
  <title>2026-01-25: 0 contributions</title>
</rect>
<rect x="642" y="58" width="12" height="12" rx="3" fill="#161b22">
  <title>2026-01-26: 0 contributions</title>
</rect>
<rect x="642" y="74" width="12" height="12" rx="3" fill="#161b22">
  <title>2026-01-27: 0 contributions</title>
</rect>
<rect x="642" y="90" width="12" height="12" rx="3" fill="#161b22">
  <title>2026-01-28: 0 contributions</title>
</rect>
<rect x="642" y="106" width="12" height="12" rx="3" fill="#161b22">
  <title>2026-01-29: 0 contributions</title>
</rect>
<rect x="642" y="122" width="12" height="12" rx="3" fill="#161b22">
  <title>2026-01-30: 0 contributions</title>
</rect>
<rect x="642" y="138" width="12" height="12" rx="3" fill="#161b22">
  <title>2026-01-31: 0 contributions</title>
</rect>
<rect x="658" y="42" width="12" height="12" rx="3" fill="#161b22">
  <title>2026-02-01: 0 contributions</title>
</rect>
<rect x="658" y="58" width="12" height="12" rx="3" fill="#161b22">
  <title>2026-02-02: 0 contributions</title>
</rect>
<rect x="658" y="74" width="12" height="12" rx="3" fill="#161b22">
  <title>2026-02-03: 0 contributions</title>
</rect>
<rect x="658" y="90" width="12" height="12" rx="3" fill="#161b22">
  <title>2026-02-04: 0 contributions</title>
</rect>
<rect x="658" y="106" width="12" height="12" rx="3" fill="#161b22">
  <title>2026-02-05: 0 contributions</title>
</rect>
<rect x="658" y="122" width="12" height="12" rx="3" fill="#161b22">
  <title>2026-02-06: 0 contributions</title>
</rect>
<rect x="658" y="138" width="12" height="12" rx="3" fill="#161b22">
  <title>2026-02-07: 0 contributions</title>
</rect>
<rect x="674" y="42" width="12" height="12" rx="3" fill="#161b22">
  <title>2026-02-08: 0 contributions</title>
</rect>
<rect x="674" y="58" width="12" height="12" rx="3" fill="#161b22">
  <title>2026-02-09: 0 contributions</title>
</rect>
<rect x="674" y="74" width="12" height="12" rx="3" fill="#161b22">
  <title>2026-02-10: 0 contributions</title>
</rect>
<rect x="674" y="90" width="12" height="12" rx="3" fill="#161b22">
  <title>2026-02-11: 0 contributions</title>
</rect>
<rect x="674" y="106" width="12" height="12" rx="3" fill="#161b22">
  <title>2026-02-12: 0 contributions</title>
</rect>
<rect x="674" y="122" width="12" height="12" rx="3" fill="#161b22">
  <title>2026-02-13: 0 contributions</title>
</rect>
<rect x="674" y="138" width="12" height="12" rx="3" fill="#161b22">
  <title>2026-02-14: 0 contributions</title>
</rect>
<rect x="690" y="42" width="12" height="12" rx="3" fill="#161b22">
  <title>2026-02-15: 0 contributions</title>
</rect>
<rect x="690" y="58" width="12" height="12" rx="3" fill="#161b22">
  <title>2026-02-16: 0 contributions</title>
</rect>
<rect x="690" y="74" width="12" height="12" rx="3" fill="#161b22">
  <title>2026-02-17: 0 contributions</title>
</rect>
<rect x="690" y="90" width="12" height="12" rx="3" fill="#161b22">
  <title>2026-02-18: 0 contributions</title>
</rect>
<rect x="690" y="106" width="12" height="12" rx="3" fill="#161b22">
  <title>2026-02-19: 0 contributions</title>
</rect>
<rect x="690" y="122" width="12" height="12" rx="3" fill="#161b22">
  <title>2026-02-20: 0 contributions</title>
</rect>
<rect x="690" y="138" width="12" height="12" rx="3" fill="#161b22">
  <title>2026-02-21: 0 contributions</title>
</rect>
<rect x="706" y="42" width="12" height="12" rx="3" fill="#161b22">
  <title>2026-02-22: 0 contributions</title>
</rect>
<rect x="706" y="58" width="12" height="12" rx="3" fill="#161b22">
  <title>2026-02-23: 0 contributions</title>
</rect>
<rect x="706" y="74" width="12" height="12" rx="3" fill="#161b22">
  <title>2026-02-24: 0 contributions</title>
</rect>
<rect x="706" y="90" width="12" height="12" rx="3" fill="#161b22">
  <title>2026-02-25: 0 contributions</title>
</rect>
<rect x="706" y="106" width="12" height="12" rx="3" fill="#161b22">
  <title>2026-02-26: 0 contributions</title>
</rect>
<rect x="706" y="122" width="12" height="12" rx="3" fill="#161b22">
  <title>2026-02-27: 0 contributions</title>
</rect>
<rect x="706" y="138" width="12" height="12" rx="3" fill="#161b22">
  <title>2026-02-28: 0 contributions</title>
</rect>
<rect x="722" y="42" width="12" height="12" rx="3" fill="#161b22">
  <title>2026-03-01: 0 contributions</title>
</rect>
<rect x="722" y="58" width="12" height="12" rx="3" fill="#161b22">
  <title>2026-03-02: 0 contributions</title>
</rect>
<rect x="722" y="74" width="12" height="12" rx="3" fill="#161b22">
  <title>2026-03-03: 0 contributions</title>
</rect>
<rect x="722" y="90" width="12" height="12" rx="3" fill="#161b22">
  <title>2026-03-04: 0 contributions</title>
</rect>
<rect x="722" y="106" width="12" height="12" rx="3" fill="#161b22">
  <title>2026-03-05: 0 contributions</title>
</rect>
<rect x="722" y="122" width="12" height="12" rx="3" fill="#161b22">
  <title>2026-03-06: 0 contributions</title>
</rect>
<rect x="722" y="138" width="12" height="12" rx="3" fill="#161b22">
  <title>2026-03-07: 0 contributions</title>
</rect>
<rect x="738" y="42" width="12" height="12" rx="3" fill="#161b22">
  <title>2026-03-08: 0 contributions</title>
</rect>
<rect x="738" y="58" width="12" height="12" rx="3" fill="#161b22">
  <title>2026-03-09: 0 contributions</title>
</rect>
<rect x="738" y="74" width="12" height="12" rx="3" fill="#161b22">
  <title>2026-03-10: 0 contributions</title>
</rect>
<rect x="738" y="90" width="12" height="12" rx="3" fill="#161b22">
  <title>2026-03-11: 0 contributions</title>
</rect>
<rect x="738" y="106" width="12" height="12" rx="3" fill="#161b22">
  <title>2026-03-12: 0 contributions</title>
</rect>
<rect x="738" y="122" width="12" height="12" rx="3" fill="#161b22">
  <title>2026-03-13: 0 contributions</title>
</rect>
<rect x="738" y="138" width="12" height="12" rx="3" fill="#161b22">
  <title>2026-03-14: 0 contributions</title>
</rect>
<rect x="754" y="42" width="12" height="12" rx="3" fill="#161b22">
  <title>2026-03-15: 0 contributions</title>
</rect>
<rect x="754" y="58" width="12" height="12" rx="3" fill="#161b22">
  <title>2026-03-16: 0 contributions</title>
</rect>
<rect x="754" y="74" width="12" height="12" rx="3" fill="#161b22">
  <title>2026-03-17: 0 contributions</title>
</rect>
<rect x="754" y="90" width="12" height="12" rx="3" fill="#161b22">
  <title>2026-03-18: 0 contributions</title>
</rect>
<rect x="754" y="106" width="12" height="12" rx="3" fill="#161b22">
  <title>2026-03-19: 0 contributions</title>
</rect>
<rect x="754" y="122" width="12" height="12" rx="3" fill="#161b22">
  <title>2026-03-20: 0 contributions</title>
</rect>
<rect x="754" y="138" width="12" height="12" rx="3" fill="#161b22">
  <title>2026-03-21: 0 contributions</title>
</rect>
<rect x="770" y="42" width="12" height="12" rx="3" fill="#161b22">
  <title>2026-03-22: 0 contributions</title>
</rect>
<rect x="770" y="58" width="12" height="12" rx="3" fill="#161b22">
  <title>2026-03-23: 0 contributions</title>
</rect>
<rect x="770" y="74" width="12" height="12" rx="3" fill="#161b22">
  <title>2026-03-24: 0 contributions</title>
</rect>
<rect x="770" y="90" width="12" height="12" rx="3" fill="#161b22">
  <title>2026-03-25: 0 contributions</title>
</rect>
<rect x="770" y="106" width="12" height="12" rx="3" fill="#161b22">
  <title>2026-03-26: 0 contributions</title>
</rect>
<rect x="770" y="122" width="12" height="12" rx="3" fill="#161b22">
  <title>2026-03-27: 0 contributions</title>
</rect>
<rect x="770" y="138" width="12" height="12" rx="3" fill="#161b22">
  <title>2026-03-28: 0 contributions</title>
</rect>
<rect x="786" y="42" width="12" height="12" rx="3" fill="#161b22">
  <title>2026-03-29: 0 contributions</title>
</rect>
<rect x="786" y="58" width="12" height="12" rx="3" fill="#161b22">
  <title>2026-03-30: 0 contributions</title>
</rect>
<rect x="786" y="74" width="12" height="12" rx="3" fill="#161b22">
  <title>2026-03-31: 0 contributions</title>
</rect>
<rect x="786" y="90" width="12" height="12" rx="3" fill="#161b22">
  <title>2026-04-01: 0 contributions</title>
</rect>
<rect x="786" y="106" width="12" height="12" rx="3" fill="#161b22">
  <title>2026-04-02: 0 contributions</title>
</rect>
<rect x="786" y="122" width="12" height="12" rx="3" fill="#161b22">
  <title>2026-04-03: 0 contributions</title>
</rect>
<rect x="786" y="138" width="12" height="12" rx="3" fill="#161b22">
  <title>2026-04-04: 0 contributions</title>
</rect>
<rect x="802" y="42" width="12" height="12" rx="3" fill="#161b22">
  <title>2026-04-05: 0 contributions</title>
</rect>
<rect x="802" y="58" width="12" height="12" rx="3" fill="#161b22">
  <title>2026-04-06: 0 contributions</title>
</rect>
<rect x="802" y="74" width="12" height="12" rx="3" fill="#161b22">
  <title>2026-04-07: 0 contributions</title>
</rect>
<rect x="802" y="90" width="12" height="12" rx="3" fill="#161b22">
  <title>2026-04-08: 0 contributions</title>
</rect>
<rect x="802" y="106" width="12" height="12" rx="3" fill="#161b22">
  <title>2026-04-09: 0 contributions</title>
</rect>
<rect x="802" y="122" width="12" height="12" rx="3" fill="#161b22">
  <title>2026-04-10: 0 contributions</title>
</rect>
<rect x="802" y="138" width="12" height="12" rx="3" fill="#161b22">
  <title>2026-04-11: 0 contributions</title>
</rect>
<rect x="818" y="42" width="12" height="12" rx="3" fill="#161b22">
  <title>2026-04-12: 0 contributions</title>
</rect>
<rect x="818" y="58" width="12" height="12" rx="3" fill="#161b22">
  <title>2026-04-13: 0 contributions</title>
</rect>
<rect x="818" y="74" width="12" height="12" rx="3" fill="#161b22">
  <title>2026-04-14: 0 contributions</title>
</rect>
<rect x="818" y="90" width="12" height="12" rx="3" fill="#161b22">
  <title>2026-04-15: 0 contributions</title>
</rect>
<rect x="818" y="106" width="12" height="12" rx="3" fill="#161b22">
  <title>2026-04-16: 0 contributions</title>
</rect>
<rect x="818" y="122" width="12" height="12" rx="3" fill="#161b22">
  <title>2026-04-17: 0 contributions</title>
</rect>
<rect x="818" y="138" width="12" height="12" rx="3" fill="#161b22">
  <title>2026-04-18: 0 contributions</title>
</rect>
<rect x="834" y="42" width="12" height="12" rx="3" fill="#161b22">
  <title>2026-04-19: 0 contributions</title>
</rect>
<rect x="834" y="58" width="12" height="12" rx="3" fill="#161b22">
  <title>2026-04-20: 0 contributions</title>
</rect>
<rect x="834" y="74" width="12" height="12" rx="3" fill="#161b22">
  <title>2026-04-21: 0 contributions</title>
</rect>
<rect x="834" y="90" width="12" height="12" rx="3" fill="#161b22">
  <title>2026-04-22: 0 contributions</title>
</rect>
<rect x="834" y="106" width="12" height="12" rx="3" fill="#161b22">
  <title>2026-04-23: 0 contributions</title>
</rect>
<rect x="834" y="122" width="12" height="12" rx="3" fill="#161b22">
  <title>2026-04-24: 0 contributions</title>
</rect>
<rect x="834" y="138" width="12" height="12" rx="3" fill="#161b22">
  <title>2026-04-25: 0 contributions</title>
</rect>
<rect x="850" y="42" width="12" height="12" rx="3" fill="#161b22">
  <title>2026-04-26: 0 contributions</title>
</rect>
<rect x="850" y="58" width="12" height="12" rx="3" fill="#161b22">
  <title>2026-04-27: 0 contributions</title>
</rect>
<rect x="850" y="74" width="12" height="12" rx="3" fill="#161b22">
  <title>2026-04-28: 0 contributions</title>
</rect>
<rect x="850" y="90" width="12" height="12" rx="3" fill="#161b22">
  <title>2026-04-29: 0 contributions</title>
</rect>
<rect x="850" y="106" width="12" height="12" rx="3" fill="#161b22">
  <title>2026-04-30: 0 contributions</title>
</rect>
<rect x="850" y="122" width="12" height="12" rx="3" fill="#161b22">
  <title>2026-05-01: 0 contributions</title>
</rect>
<rect x="850" y="138" width="12" height="12" rx="3" fill="#161b22">
  <title>2026-05-02: 0 contributions</title>
</rect>
<rect x="866" y="42" width="12" height="12" rx="3" fill="#161b22">
  <title>2026-05-03: 0 contributions</title>
</rect>
<rect x="866" y="58" width="12" height="12" rx="3" fill="#0e4429">
  <title>2026-05-04: 2 contributions</title>
</rect>
<rect x="866" y="74" width="12" height="12" rx="3" fill="#39d353">
  <title>2026-05-05: 12 contributions</title>
</rect>

  <path id="race-line" d="M 24 100 C 154 38, 274 172, 404 100 S 654 58, 874 138" stroke="#f0f6fc" stroke-width="3" stroke-linecap="round" opacity="0.75"/>
  <path d="M 24 100 C 154 38, 274 172, 404 100 S 654 58, 874 138" class="line" stroke="#e10600" stroke-width="3" stroke-linecap="round"/>

  <g transform="translate(884 120)">
    <rect x="0" y="0" width="10" height="10" fill="#f0f6fc"/>
    <rect x="10" y="10" width="10" height="10" fill="#f0f6fc"/>
    <rect x="10" y="0" width="10" height="10" fill="#0d1117"/>
    <rect x="0" y="10" width="10" height="10" fill="#0d1117"/>
    <path d="M0 0V42" stroke="#f0f6fc" stroke-width="2"/>
  </g>

  <g>
    <animateMotion dur="7s" repeatCount="indefinite" rotate="auto">
      <mpath href="#race-line" xlink:href="#race-line"/>
    </animateMotion>
    <g transform="translate(-25 -10)">
      <path d="M3 10L14 2H42L57 10L44 18H12L3 10Z" fill="#e10600"/>
      <path d="M20 6H35L42 10L34 13H20Z" fill="#f0f6fc"/>
      <path d="M0 10H60" stroke="#15151e" stroke-width="3" stroke-linecap="round"/>
      <circle cx="15" cy="19" r="5" fill="#010409"/>
      <circle cx="46" cy="19" r="5" fill="#010409"/>
      <circle cx="15" cy="19" r="2" fill="#8b949e"/>
      <circle cx="46" cy="19" r="2" fill="#8b949e"/>
      <path d="M5 8H-8" stroke="#ffcd00" stroke-width="3" stroke-linecap="round"/>
      <path d="M5 13H-15" stroke="#ff8700" stroke-width="3" stroke-linecap="round"/>
    </g>
  </g>

  <text x="34" y="182" class="label">32 contributions</text>
  <text x="680" y="182" class="muted">animated F1 race line</text>
</svg>
